<mxfile host="app.diagrams.net" agent="Mozilla/5.0 (Windows NT 10.0; Win64; x64) AppleWebKit/537.36 (KHTML, like Gecko) Chrome/129.0.0.0 Safari/537.36" version="24.7.14">
  <diagram name="Page-1" id="3-6oOA5-LIlIWtdAZ_tB">
    <mxGraphModel dx="1195" dy="653" grid="1" gridSize="10" guides="1" tooltips="1" connect="1" arrows="1" fold="1" page="1" pageScale="1" pageWidth="850" pageHeight="1100" math="0" shadow="0">
      <root>
        <mxCell id="0" />
        <mxCell id="1" parent="0" />
        <mxCell id="kXeZMgc8dvFD3Os03lKk-4" style="edgeStyle=orthogonalEdgeStyle;rounded=0;orthogonalLoop=1;jettySize=auto;html=1;exitX=0;exitY=0.5;exitDx=0;exitDy=0;entryX=0.5;entryY=0;entryDx=0;entryDy=0;" edge="1" parent="1" source="kXeZMgc8dvFD3Os03lKk-1" target="kXeZMgc8dvFD3Os03lKk-3">
          <mxGeometry relative="1" as="geometry" />
        </mxCell>
        <mxCell id="kXeZMgc8dvFD3Os03lKk-7" value="Admin" style="edgeLabel;html=1;align=center;verticalAlign=middle;resizable=0;points=[];" vertex="1" connectable="0" parent="kXeZMgc8dvFD3Os03lKk-4">
          <mxGeometry x="0.279" y="2" relative="1" as="geometry">
            <mxPoint as="offset" />
          </mxGeometry>
        </mxCell>
        <mxCell id="kXeZMgc8dvFD3Os03lKk-6" style="edgeStyle=orthogonalEdgeStyle;rounded=0;orthogonalLoop=1;jettySize=auto;html=1;exitX=1;exitY=0.5;exitDx=0;exitDy=0;" edge="1" parent="1" source="kXeZMgc8dvFD3Os03lKk-1" target="kXeZMgc8dvFD3Os03lKk-2">
          <mxGeometry relative="1" as="geometry" />
        </mxCell>
        <mxCell id="kXeZMgc8dvFD3Os03lKk-8" value="User" style="edgeLabel;html=1;align=center;verticalAlign=middle;resizable=0;points=[];" vertex="1" connectable="0" parent="kXeZMgc8dvFD3Os03lKk-6">
          <mxGeometry x="0.2351" y="-2" relative="1" as="geometry">
            <mxPoint as="offset" />
          </mxGeometry>
        </mxCell>
        <mxCell id="kXeZMgc8dvFD3Os03lKk-1" value="Login Sebagai?" style="rhombus;whiteSpace=wrap;html=1;" vertex="1" parent="1">
          <mxGeometry x="270" y="550" width="80" height="80" as="geometry" />
        </mxCell>
        <mxCell id="kXeZMgc8dvFD3Os03lKk-13" style="edgeStyle=orthogonalEdgeStyle;rounded=0;orthogonalLoop=1;jettySize=auto;html=1;entryX=1;entryY=0.5;entryDx=0;entryDy=0;" edge="1" parent="1" source="kXeZMgc8dvFD3Os03lKk-2" target="kXeZMgc8dvFD3Os03lKk-9">
          <mxGeometry relative="1" as="geometry">
            <mxPoint x="440" y="460" as="targetPoint" />
            <Array as="points">
              <mxPoint x="440" y="720" />
              <mxPoint x="440" y="470" />
            </Array>
          </mxGeometry>
        </mxCell>
        <mxCell id="kXeZMgc8dvFD3Os03lKk-14" value="Salah" style="edgeLabel;html=1;align=center;verticalAlign=middle;resizable=0;points=[];" vertex="1" connectable="0" parent="kXeZMgc8dvFD3Os03lKk-13">
          <mxGeometry x="-0.1236" y="-3" relative="1" as="geometry">
            <mxPoint as="offset" />
          </mxGeometry>
        </mxCell>
        <mxCell id="kXeZMgc8dvFD3Os03lKk-17" style="edgeStyle=orthogonalEdgeStyle;rounded=0;orthogonalLoop=1;jettySize=auto;html=1;entryX=0.5;entryY=0;entryDx=0;entryDy=0;" edge="1" parent="1" source="kXeZMgc8dvFD3Os03lKk-2" target="kXeZMgc8dvFD3Os03lKk-15">
          <mxGeometry relative="1" as="geometry" />
        </mxCell>
        <mxCell id="kXeZMgc8dvFD3Os03lKk-2" value="Login Benar" style="rhombus;whiteSpace=wrap;html=1;" vertex="1" parent="1">
          <mxGeometry x="350" y="680" width="80" height="80" as="geometry" />
        </mxCell>
        <mxCell id="kXeZMgc8dvFD3Os03lKk-16" style="edgeStyle=orthogonalEdgeStyle;rounded=0;orthogonalLoop=1;jettySize=auto;html=1;" edge="1" parent="1" source="kXeZMgc8dvFD3Os03lKk-3" target="kXeZMgc8dvFD3Os03lKk-15">
          <mxGeometry relative="1" as="geometry" />
        </mxCell>
        <mxCell id="kXeZMgc8dvFD3Os03lKk-3" value="Login Benar?" style="rhombus;whiteSpace=wrap;html=1;" vertex="1" parent="1">
          <mxGeometry x="190" y="680" width="80" height="80" as="geometry" />
        </mxCell>
        <mxCell id="kXeZMgc8dvFD3Os03lKk-10" style="edgeStyle=orthogonalEdgeStyle;rounded=0;orthogonalLoop=1;jettySize=auto;html=1;entryX=0.5;entryY=0;entryDx=0;entryDy=0;" edge="1" parent="1" source="kXeZMgc8dvFD3Os03lKk-9" target="kXeZMgc8dvFD3Os03lKk-1">
          <mxGeometry relative="1" as="geometry" />
        </mxCell>
        <mxCell id="kXeZMgc8dvFD3Os03lKk-9" value="Login Page" style="shape=parallelogram;perimeter=parallelogramPerimeter;whiteSpace=wrap;html=1;fixedSize=1;" vertex="1" parent="1">
          <mxGeometry x="250" y="440" width="120" height="60" as="geometry" />
        </mxCell>
        <mxCell id="kXeZMgc8dvFD3Os03lKk-11" style="edgeStyle=orthogonalEdgeStyle;rounded=0;orthogonalLoop=1;jettySize=auto;html=1;" edge="1" parent="1" source="kXeZMgc8dvFD3Os03lKk-3" target="kXeZMgc8dvFD3Os03lKk-9">
          <mxGeometry relative="1" as="geometry">
            <mxPoint x="230" y="460" as="targetPoint" />
            <Array as="points">
              <mxPoint x="180" y="720" />
              <mxPoint x="180" y="465" />
            </Array>
          </mxGeometry>
        </mxCell>
        <mxCell id="kXeZMgc8dvFD3Os03lKk-12" value="salah" style="edgeLabel;html=1;align=center;verticalAlign=middle;resizable=0;points=[];" vertex="1" connectable="0" parent="kXeZMgc8dvFD3Os03lKk-11">
          <mxGeometry x="0.0122" y="1" relative="1" as="geometry">
            <mxPoint as="offset" />
          </mxGeometry>
        </mxCell>
        <mxCell id="kXeZMgc8dvFD3Os03lKk-15" value="Dataset Page" style="rounded=0;whiteSpace=wrap;html=1;" vertex="1" parent="1">
          <mxGeometry x="250" y="830" width="120" height="60" as="geometry" />
        </mxCell>
        <mxCell id="kXeZMgc8dvFD3Os03lKk-57" value="" style="rounded=0;whiteSpace=wrap;html=1;" vertex="1" parent="1">
          <mxGeometry x="180" y="660" width="120" height="60" as="geometry" />
        </mxCell>
        <mxCell id="kXeZMgc8dvFD3Os03lKk-59" value="" style="rounded=0;whiteSpace=wrap;html=1;" vertex="1" parent="1">
          <mxGeometry x="670" y="510" width="110" height="210" as="geometry" />
        </mxCell>
        <mxCell id="kXeZMgc8dvFD3Os03lKk-88" value="" style="shape=stencil(7VnJchNBDP0aX1W9t3QO8B+pSkJchIQKYft71LjacUvjZzhScJtM+rm1PW2zy1ef768/3e5S+Pzy/PTh9tv+5uV+l9/sUto/3t8+71/0aZff7vLV3dPz7fvnpy+PN4e/P12Pk+Pp49PX8QvfD7gYAoUwYCn8OLwKlOXXi3cHwMP+8QQgQpyW84kCw/MxLucL1QjONyptOd+pN3A+EpflfIxUwnkAV0qrArEQgxu6CsAroJNUAIjU62qiQAJs2jqVvgIKpQIAasPVaYkpdABQAValc6IK3FZVgPWGrEICQMnEefWz3gBEypHyaqXSiYFZo1Bfb6iZEgKkGWlHAOMblAurldTQCThOAU1WgIY7UFpFMoCeKSNAob76obdJwG1AcwAhAXxQs6Y1vDmRAIYq4dsarUopBjekainKTAX4QYPZhIaE6fttgEx+HQEXgs85TgoFcMOI1lUHqZMh5wCyWkkzWwQEyplisgABeSkXKisfpE+ttgFqdaOD8gEASqBobpBphnOAJBZQkB/UcWwBDZlVbPZWQAd8UKVDtQBGnm5UiwUIukEp6pQWpHQiNgXltQqfC1fxMgHPKSFCdwAQTFpls3MEig0ltfcczAJlQwcUrgrIztUV6cC2BGl8V+A5tRI7QmSQmJTUtVtAQrGRN26IOPqyWEDApLZ+4JlItjkanVkZZjKt7NEpndENxeVKxr2DK3IKaMDTCkjO04jU2otItQBEILVScMEXQVVUPzSXK2G+bxQcH2BFybbpGzfgaM0OEBCBZFr91EqIQGw7XTm+OQdoLpZQoVaRiotW1N6PVOlCI6Eymp0fGJu1UnU3RCQSuzKKAVpGq+c04oO2ZJ7TmHFe6YIIVKg5kVChVkBxgI5F+kPAv9qdOMD/7uRv6E4isUt9KPpSsPOu4FXI2Nw0Cwhokgtzfv7NGUUBtshV2P8MgPFDmRF/bhr1k1wDOkR2SgeYNmKd256TaRRtpMbMbgbkCtcImwM1ON/cTkBmDdvOY1aesRJARdedz3DFF2wX0HAn4zaIY2uCAns25SdrGeSxI3NP9j6oQCvTzJxblDigMIwufbWQFlRETa1VcQWM7RiIoRps0I39GxCpFtv3jA0fCIra7eCQCvRaizbs1JEop7Zuu/TY53SzvQetU+KTTWsHZmV13CpSjLCiKxFNW9/hnoiPvePJMhrtitmOb3jZzWypg5fp4/eTOY/2jawNTrTn0TI9THFfz6PpU6Jd1ge4VtbcnK38AZQDydSqPQ/sr9UlOHnQ+WYnzwvydNtNXdCX7fx/wZ5iF5kX/OUWEjge/vjrzW8A9OH1Y9Hd/uHh8K3p9P/245K+OnyYym9/Ag==);lineShape=1;strokeColor=default;" vertex="1" parent="1">
          <mxGeometry x="132.88460398773827" y="54.996019212805095" width="20.794634886089135" height="303.28703141855397" as="geometry" />
        </mxCell>
        <mxCell id="kXeZMgc8dvFD3Os03lKk-89" value="" style="shape=stencil(lVjZcloxDP0aXjXel+c0/Y/MhBSmFDKEdPn7yqW+Rbr4uHm7GB1L1nrsjX942z29bjfOvF3Op6/bH/vny27jP22c2x932/P+wl8b/7jxDy+n8/bL+fR+fL7+fn1qku3r2+l72+HnFWfI5gZy5td1wZMvfxY+X8UP+6MQr0GIWwp5LO7IGCFu+sJdcU/JKXEbxuKRqlW25zoWr+TkUW2gBLa3vF2S+zuowFby0jsxkHHAPZGKNCmzTgsc5MlJDSVQ9WNAsGSLBGSKCQD4DFEC2EgUhNwtXgCuO/ouIEXKXgI4K4AG9omXaZEzJZCkvF+UaZcdBZB3JVGpApCW2N9PJU5s6aXoqAKTKh9aAoKDka6lZ86SfJEiAlSyKlttd/QIUKSXXKGCNZSkASj5GKAKlGvwrxuGgNUZLCppBsjAcYUYVKLG6JbEfnUTm5SKTGECUC21TgGyILhqDco+DoQsak4mdOoGcBowMUm1vrkG1QXaGbCGtPYS6AINEFdxwNmXZK9skZ4AlAZOJtDJGkDGwS/tduglGel5QWSpYV5yJWjApKir0SaFCUC51XS/DQHKS5x8YCreq9EAe989RJo1P21U6TXyn8cOPGVwrJVjuSImGlToWpFO+vFHAYoMhIAbTdFjLmRIBtqYkxpixBpc/3uZvLGTqNGoVjMlJ0gSGxlQ/CRAFtfohizSauAZ1oSGT4Va2Zoy1QAJzZqUcWQcYnEr2ndTIkNmKUdEzfAm4KLOPg6NBd2ysWNZECl1njbk32pqxc4ERwRf9b5MDkQ66gq1iRJi3/p6whZa0GScpnB2cfLocrW6oFRgvyGn7M89TwbyNmp5xNRZ3mr/ZHg5NMr+CIfVQvtvzoumobnjT5QPq6FgLeTca3lewfarzkIeFOWy2ZL/cB6Y1RUDXrVN52dLscAha3rm3tydQS1++JlgIs4f/14kXvaHw/VB4/Z//YLBS9fXD//4Gw==);lineShape=1;strokeColor=default;" vertex="1" parent="1">
          <mxGeometry x="147.9887771896847" y="56.08835783677796" width="638.6214040669211" height="16.839729682821297" as="geometry" />
        </mxCell>
        <mxCell id="kXeZMgc8dvFD3Os03lKk-90" value="" style="shape=stencil(lVjZctswDPwav2LAm3xO0//ITJzaUzfOOE6Pvy84GikBZC2TN1vaJXEsQFC7cPd6eHjZ7zy/Xi/nn/s/x8frYRe+7bw/Ph/2l+NVfu3C/S7cPZ0v+x+X89vz4/T/5aEj+69f5999hb8Tj8m1TvL8b3rQItXpyfcJfzo+K3xZ49M23lFxFp/B+oH6K42PvI1PFIvGByp1G19X9nhiB+wP5DShLkvcJshr1gRPDVgkLiRNKBIiQAh+ztBMyLJE3CZEnkM4E1IhzoBQKOmoJqYMspwisU5bzNRQ2tqcpYWQKICw5kjN7CBRAk7nRlknLgaqgFACNR3W6MkHQKjkNSFI7sEOIoSsnQ4BZroWG1ZfoPiaIw6a4CiBcpPqClERXKYIfGh5FsJC8FQ8IFRyWnyOKQCnhVC1SRV2pNZm4SxihUoSfNZp41kpW/gSDd5heyobPINS6Phs8QXimzP4gO1pdv0GZN3xOj4OFprjxb9FdBSRIlYbLE3/kw6EoQOmVcwddjMBxeDRkdbxprNQw/iSDL7ghBmBxlGCTUmG4frB4Bnbb/DSFwd401MoooIXvI4/zxW0GU9v8GGArwbPWD/VFjwP9GkL3oPTteOTwZeBnquJJ9LDzYJ0wKCbhDbwwBxk+FgSvI6oKHrg8RfxUdvTcAeqdoKSMQ9KWg4xI+kIx8x+TJodCjnkQpwPxSUFjLuQm0+JhZDhJNuHCdMmRBYgSjKumFlZ5hsHdpCBKKxGLgeOMhl0je5kbMyAcGOoW4awz46NjRgQbgym8gSY1EdfLY0k5TkYrrU0UoJh7eO77r9ZhjqgJcmrcbrgDuaX+8NCaOSAvPslR+8g6kqDa5T2Qe5pKHGrDXpFgSlkfQ+sFPE909jTyCMHVvY0eCNa3ZM/NNkNgr2IN9iD2XakfmzBi7sZw9+P3Q08Z4sPQENsbx69yUL72Vn8YH1jf4Gn5i086nZrezKlL/mb4DV/Hc80WN/mK8GSXOshjvTzxQ8/I7z8eP/K9HQ8naaPVB/f269S8mj6ohXu/wM=);lineShape=1;strokeColor=default;" vertex="1" parent="1">
          <mxGeometry x="122.15187729839909" y="317.9534857962958" width="621.6737249681647" height="46.92245000068151" as="geometry" />
        </mxCell>
        <mxCell id="kXeZMgc8dvFD3Os03lKk-91" value="" style="shape=stencil(lVfZktowEPwaXqc0Gp3Pm81/bNWygQqBLZZcf59xXDbWCDfLmzHdsuZqtTby9LF7ed9uvPu4nE/ft7/3r5fdRr5svN8fd9vz/qJPG3neyNPb6bz9dj79PL6Ov99fBuTw9OP0a1jhz8irlWoYWN79Hd84Cun/i68j/rA/LvFs8YkiwJdAOTV4ZkqAkAN5QyhUZJ2QhAI3BN2Sr+uE6KnEhiCBuKwTgn4hN4TgSUAMEslJQ4hMw881gs/Etc2qIx8AYf57JhTyeZ3AgVz7hRyJwRcqSZukoo0B8IlcmyOtfHEgqbbMRcsMAhDKrsFXTxEUTai08dZIGawfKJn1yxTR7S6yc6CThAqQKcUOH8HgkPTrw3o598h+6pS9BV7A+uxufCCAueSuRZUQQcQDIVlCQj2tW+oIGUx+nZRngS8Qz13IFYkdhbbG7OasrTSFFce7BPbdjkBOVZxrFzGYmjTJ1DKjoATpRgUS3A+zxUck7iRdlwYgpIlK13MC8HnStOXUwAr3+0dTWaZ+/OT6Gl3XccIIX/r8gP7RkeGOEMEHhqHsCAmPPXdCl0FLaAhdSgtMkfRDCUuQcocHQ/8o3k8F+qQuOqoGPzfVCp77gwyMcK/THjo0R9Ec3GWqyEq8pkUHiwfwkVK7fzUSghsotBqUZzt1mzA70IUXYhCxeoPYhqBuC3khYXsYq59jMGZSpxItHKMHMYQ67XjhSR0QrlitH7pq622lczZo9dVIqrVMtTWx6twDGpxiO0/VG52ucTJ816sH8u1VD5to8aAIihcxeAY1ULxJqYMOsGardA6WTPHJ7ged9YMu2KvZHXy/PtqPWsZi8Uh463QzXOQTr58fqle1DTefPStC0UmdKgsq2KN33bt4fbherN/2h8N4L1/+by/i+mq8xMvzPw==);lineShape=1;strokeColor=default;" vertex="1" parent="1">
          <mxGeometry x="707.3162893033798" y="58.32792804187329" width="56.36288483763451" height="311.76673008723895" as="geometry" />
        </mxCell>
        <mxCell id="kXeZMgc8dvFD3Os03lKk-92" value="" style="shape=stencil(lVnZUhsxEPwav05Jo/uZJP9BFSa4QjAF5Pr7zMbRYrXYNrzBumc1mqPn2F24er67ftzv1D2/PB2/7X8dbl7uduHTTvXwcLd/OrzYX7vweReubo9P+69Pxx8PN6f/H68X5PLX9+PP5Q2/T3JBfFuE1P05PYgS6r8HX07w+8PDAM9pgPsqJTL8/187PiTJgeFTGfDJnmSG11H93KQVhvfj+6uKSwwf/Ihv/cmb+CQ+DPjmpRB8lTjapzmpbRvvQ//5TCGn2wLqJesokKWRE4LrBlwFklRioujFZRRw5ITkReGEKJ4EUXZSKnqNCjRJo1mLuY2EUSnoh5JFyQmmsY6OLpYazNGzSp6atVlou1FgNcPbAknSJOAcEchSR5VyosHXSg+1NTurNHZCQU9HEyBmNYE0mjUUqcRxJlDGBNVySaUKAhbw7ISMfvCFenpxXECBSMxaqySPAomQZPXS5hOIgMVmqigQiJWy8STwfKbRmlQi3CFRIo6K+eAtpRjTh+6mVcASiJzwGggrt1KrGtfH8QDzArmyxY2OV860dC4mL4B3JBfMHr4CnjnZO0n6Af0zlmZLTVr5A4SQo5XZqgIEBOc7Ized8CTNnMSE+EjMad5S1L+QrDTuHL1ljQWpsyvVnlmTw6F8UOZ1mI6ZcpaTgHAl2e4kj7on2rM4bEESzSuPYWwdIOtwsBLnfvcNeMar0v5JSkG7Ezd5LBa1l8ytt4/KtAtwsPsSktSSmIJmLOJXs/yUgjzk65yCNMygWPv1Rlsp2BDvyH3dpP+axFtJ5cH8rKJM8NoL95Y20F6JUj5TZHvG3g57gERDZ+Wusxzk5PoRuFX/sRJGqkzuL1ubtl4ZtwoVFEI+Iy2FcIxLR/uppRnKgGd9sE76GCGS6y5DcEb9SeW0uHIV7MMYMESMtNT7va1WCke8TrmbvRoMnZR28jQ0mwcZ75Rpil96BTZN+V4szzOdBKi1zBGZtpBesM1zP59D8jSiirLZq/WtxjnVsrLlpoZhKQdsrGhYukynQNy26DRSSqj9VlsCwEGx0UQzAegzUuPTWkPKzZUSUavYPFhs0fEu4aVtkKdWCv3nM4FIrGSDfIE6UGgjXCOORssyggSfvQ/zWSmB5Umlmvpab2uhgluk2pc4WyubMKrUHOWY6JHDmqfBF3wfhlYBpeX4lXRXgUBXi0sZgfYg09VZxdbSojESfMIbnCX521fAkccOYCOSOWHa/UU2cXZ1VzyfmD0ukCywMtUHwi6FC/0oeCzwJsdPWwteqByuRVJvBN4Hj/3+W/DR+nwzPTXf2q21AcfemK5PPM76vpPM+8YeT9NdMZIdbUAUyYG39Tp1B3Q3q1JhSqITnqKblM4kAXvL0DuLLfjHPpdcgNsfr19mbg/396cPO+e/45cce3T6ChQ+/wU=);lineShape=1;strokeColor=default;" vertex="1" parent="1">
          <mxGeometry x="604.0067870968128" y="87.68835428134014" width="129.128046415276" height="36.815304935852666" as="geometry" />
        </mxCell>
        <mxCell id="kXeZMgc8dvFD3Os03lKk-93" value="" style="shape=stencil(lVnJbhsxDP0aXwltlMRzl/8IULcxmiZBkm5/XwqGxhbpeUFvyfhxJG6Pyxzyh9f7u+fjIYXXt5en78ffpy9v94f88ZDS6fH++HJ6078O+dMhf/j69HL89vL08/HL+f/nu4Ecf/14+jXe8Ocs14nTEErh7/lBqtTOTz6f8Q+nxyt8pV4WfC7EcR/PxLzgSyKu+3h9W1jwHOcNb+LzvO3E10BSEL6s769CvUN8W/CtUYP3j3nB9wzfr/asK16o5n18TPPnKSCRKnBAbBTWEyRRBBqkZFWQBK+UGkm0AtKATdVIaxBJpijAqIFKtAKZgUAlqe4EoDRnqs3q0APwW6DQrR8acnSlZMwaKAIrtUhlDe3eqYIrNaayXqnXmX23BWRafRMo0NM9UV6tpE+Q0p3dCZqeSKBNq2/5JlSA40b0r2YdCQrMqoHQV7M2jSXAMFJIDGUwBeAHYcsZrH4AnKQC5oTCkwZvC1QKqw45zyd7JxilR5ZjHUy0RmVapEO2RN8ogtjT4DeFR4MbB0YynDEr0V6optWmMUCe1OyR9YAYKQCB2mchuBLIIFSr/hysQAFe40IpuhMQT2roZycAElqLcXEnJETd3Sb00AEorVzfnFlRg5H1xu5KgsuPPSFRAFbSmm56jPcEtJwldyWQPSpQnKdRvVKB4KIVMUBSI67ppjQJ0kHx1RAx9LPiLUvOrmC3aTB92Hywh2fDkTB31GdxjYqCg0LZylAqdaRvmea43CcCOlK8sT9DOhqvi8Y+qEoNc5g6CNtIjxcKKODcfTTgYFfoFNaQRhXEW3QkPnZx82mJbORiIiZYmH3Q6ZUYneCiWq3UQU3waSPv4V1aVmQjl/YN04TjlYppwtUDbURQ2Dlm1NYIvd9Rr6YlCtP/xbtagPG+2ODWblSzbPAJ+NeXS4bV0tdjhg35KPjW/gzw2lG4+2Q0tGg3YGkO0br2RNXSdEUTCFNb8XkG+O2uzsV/gk2dDkBmJIqQ1vu2DJj4gFt9190E2DNKm+PSJR8r6DykE5t2C4+lIlO/zUARnyDTQZsHElygqIBJeR1W0GQQQ7AkxG3OkXtHGKvq8NyxmYLZ0nRYOsYA5dY0BQTGGG/MnoYhs+t8U90wjjou/TmujtCRR0Cu9exma5lNwN6431cBvWRDI1G15W+sjoAfmpY/s+PIUAf1azVtC8OKXIMlbE2pBBzH2U5pGiwFU6qZrVUAtZpjOWV0EDh0ZbcjFLzjGL2fWAG4kUs2HwRPy7HaDcRV1u7tIU24jiNQuM5+9MqsaHVUpkk2fIUp7UNvq+038eFGQidwf0dirUECCJZhqsC4CzNmNpIUGHbbcmLD49IT595to+0AJ65sE017JbTEKnZ9cunndz4MxDVENWjRhMO2E1Q8ar3Y5szondE6h3Kx+ALxPVo8yvpmx6HxfqBvs9PQiHC08LL76MsSYgdvVrljnIL5y93i0ZK/24X6aMVB7ei2D0n8Dp/834er9/H6x+Ur2dfTw8P5I9v17/armj46f5HLn/4B);lineShape=1;strokeColor=default;" vertex="1" parent="1">
          <mxGeometry x="506.321555094471" y="88.62732030119992" width="79.40090184135784" height="39.827105062339854" as="geometry" />
        </mxCell>
        <mxCell id="kXeZMgc8dvFD3Os03lKk-94" value="" style="shape=stencil(lVnLUhwxDPyavaps+X0m5D+oYglbIUABef19NNnysG7v9MJtGNRjWW61Je0uXL3e3zzvd+pe316evu9/H27f7nfhy0718Hi/fzm82dMuXO/C1d3Ty/7by9PPx9vj3883i+Xy9OPp1/KFP0ecBiltQan7e3zjnaj//+brEfBweBwBuY6AIpUDkg4ATVILBQQ/AEKUrBTgxxWivYkU4PIASO6SSx4ARQIDRCluAOTQ35wHZEllBCRxjQCapPEccpZCNh2CKKxQpBGXgm0xjYAqJW8DopcGLjWJlQAKnkNxEsimk0oOI8DWJJtOVdLIpWJcImzNUUIcAZUCzGM3rlA5+UoSP+6hFr5CkzDSu3lRcnBVJY57aKGH4TwgYpRalEjobR6Hii55Qo067aEaWwk17HsZwsp1ybZYxhWKigsEYOcA9FZRBsiik2okEqVWugOrkFXxbA9F0riCyUIgYTUAZJzPUolUtooZZ3If2KaD1BGQaZBqwgw1sSf2dkgxoT3hRYqzPyzbTMRiAHuWCuolKthn8n3jtUNzImBu9p6bp4bOEzo41C6LDYmlwwRIfbkNc2CzHUWi5g7MHTcfI2PXFTXX8esqiZrDqXJtcFON08Vlw7wlMM8k7qbeCuaVxN0YCaLQ7+UN86wQSEcuC9sZFFtSiKZN5rGXIVvOoBpw3yOmB/ddMbcjTY82JR9NDyABV4KJYrln48cInGgVPaVHojfJmeQLlMB4UVGRnIRDKWcmWdILsgSiZ+lBSDBJqnGOkuBT5pO+mzkr443BHuwjye3lekItUOJOWjW32ztakpepFHS9udq8vvH7LAPbKuon9qysazN1aIa7icme79hWKCOXrT9lqtCm0lRLL+m3aqgKktnEXSi64KJdO6WtSrOBlsRecG/VstCqWZcReVmHTUjsbfp5gMOGtlkWsyakYtZbsUpbhLWQWwHrUW51LQA4YctWYwRksqOJBGC9XwWfEj25pbuMGKbI+s3W65b1ICplXw694T3pN1nZZi2wAjcsruQStiY7joOCUmjNHzNerMY+VhougwKHAE8AJpMKXXm8NOxwDQHKBjatd5crIPChU8LBmWkt66SWOgySuvXeZ+suCVDeRHrpL3fBWLGkwvfgOhFOOlo6pXK9u1zrCqVqPNdc4cI5eCx0lq6EN2x+ZKvpfWLDP49tfKMjpOUYYDjSXfxgB1k7ebfsYdJh/jMeedSkNf3O2ytORzMt2c1+KmSZRi7F32T/uTyQzGevWiE+npHa5BDEhV4jy0B7JFClQ8v3BumdDxfy/tMT9ksAe3gf6N8dHh6Ovwec/h9/ALBXxx8PwvU/);lineShape=1;strokeColor=default;" vertex="1" parent="1">
          <mxGeometry x="372.91042526775914" y="90.2110197808314" width="123.96584062860049" height="42.560496381698464" as="geometry" />
        </mxCell>
        <mxCell id="kXeZMgc8dvFD3Os03lKk-95" value="" style="shape=stencil(lVbZctswDPwavWJ4gCD5nKb/kZk4tSaunXHcHH9fqKqUAIk2kzda5hLHLo4hXz3ubx52QwqPl/Ppfvc83l72Q/4xpDQe97vzeNHTkK+HfHV3Ou9+nU9/jrfz74eb6eZ0+n16ml54mXGVIk+gFF7nD4Fi/vfh53z9MB7fXU9C3M39KJT6NoAVEAwgdcphGyCFggXkRkG2AS16CxxI2jagM+VoLXTqCQCEolgLkQQE3Ss155KmAVnoFKoBlEyCAS0ZgCQqGNAtcTVRihBQrDI00QJ46O0DQJ1EPFQKzQA00QHFUCjboNVJBmrtmZg9oKIYNMTsXeoIoOVimdYnMgO1Ns9DUydBlhTA1qXKlEABTQCrJWFsofsYSoExaNDJWuBKFREXqRULSF8RJ1YaWtMBAQqV4gGQ6bq0rRXAi3635F1dlsJC5VYBOS2VDptADMG3PmlYfauaV200EqANDaJbn1rFVFcS2yu1e6YCiXAW1KYg5njp7utEecvDJqJ+C9GCLzot6/9F8vkQYorWRNf2CgBcKLqyFuhS4qU3rtQJVHghtkSoj4i5TN0WhA4IdD8t82ZVq/ZzIO9IxfqjEyuDeaIz2fUMWYbkxn03c3VIMxDeh9rJEW4BYZl+616iGQP50XbiRCfwfbVu8x8DZbRZ+ZWhwDpTgbrnqQLvi+9FuGC+uRV+eV0Pbwvo3Xg4zPvr+//9wqqf5mU3X/8F);lineShape=1;strokeColor=default;" vertex="1" parent="1">
          <mxGeometry x="435.2726853678905" y="106.44661509834634" width="22.218976474603288" height="4.301555788359603" as="geometry" />
        </mxCell>
        <mxCell id="kXeZMgc8dvFD3Os03lKk-96" value="" style="shape=stencil(lVbLctswDPwaXTEgwQd4TtP/yEyc2lPXzjhum/x94WqoGnS0aW4ShRWBxeIxyd3L9uF5M0V+OZ+O3ze/d4/n7SRfphh3h+3mtDvb0yT3k9w9HU+bb6fjz8Pj/P78cLG8PP04/rr84XXGCUW5gCK/zQdMzH8Pvs7m+93hyjwEKuzsG2let4+JYnL2MRLLOiBF0ugAkiiEdUCp1HwE0qiAG1ql1EZAADE3pegBiakAl1ojDh6QiQFLBsjVAXKghgHN31C4J+b9vPGS146odqLwCvW81kYJ0WSfvU9aKTfIqw5aEqoYwF5MlktBNNVR3XbSUAyFUvaATIJYylTVA4zWAgGDmDRSwjewL4gq3cn/BBTpall1yceQEymOoXq5JiMauWS0+sSlQFpx4oYu0Dpvq9K46QIV3aBj4pK1QgRY1L8A7CTiAvIxZKsHkOl3arQUUhT1TRuoBcu1dQ8W9X3YmQYxNetMOBEyFHXp/XYt1XkAKK4gA4TPAGxCqC/qK6bXhlAuYxACxGFjVD1AC6w5m6NDK6sKBR6p+JIrDbZvy9JgX3uVr9iLrx9rGhlEzL1TL+JWCuD/3Pm7mnAJEMR9JF+VZwFJvikdscYN+DR770+sUEQ8yjrY0gD5KZ6fEKF9GBueVQ0012GtgrPZ9Oz/zhSB+SeXwg/N7eHf/vm02+/n9fX6+7iv2tG868r9Hw==);lineShape=1;strokeColor=default;" vertex="1" parent="1">
          <mxGeometry x="536.19113366549" y="111.5301681410939" width="44.37577403546736" height="3.772700333520239" as="geometry" />
        </mxCell>
        <mxCell id="kXeZMgc8dvFD3Os03lKk-97" value="" style="shape=stencil(lVZBctswDHyNrhgQIEHynKb/yEyc2lPXzjhO2/w+UFWqAlPCk5ss74pYYAFw4ruX/cPzbiJ8uV7O33e/Do/X/cRfJqLDab+7HK76NPH9xHdP58vu2+X8enpcfj8/zMj56cf55/yF3wuPINJMInxbXiQB4T9vvi744+G0wQcGREOIFaSOCZSBiiUgVIcQC8RoCPqJmMaETMBsCBpkzmNCzZCqIWAT9X98AaYOn8TFVyuZXMW1QrLfz4BODRRfshVMQE5AAbGvWigQyD/CpogioE/4m5KVUFtZRgS0ZWaG6GVJq2CzygLol1lST8jeCQK1Cyk1p4wIHCyBfEKCYq1KWgfPehqA1UA3T0hdpaWlYUQQm9aAUIorGi0hQfUk6PmdM4A8J2VgKxmBouuLLh6E4Hdn7rrnVneydHqTb+z8IaHRb51uXGjJgqdYCR9M4bpoHdGbkSpejiqQ9Sn7E0aTKl0nJIheSLmZZtucfjd/jqBrofNdCq4xdPF0zSnp1moT66SCbXeNlme0hIqQnZB0b9jFsJnkAwJ1B+gg9zZDPyK1kNHFozXSPNGcFCGIFVCpjcwBvou/ZHe4aDZsjQu1GT7CWxPlDNnpTWx9teKp7eoBnu0GkdUjA3y2+RG1iHf9ArJtJqrIme6hLby1B1Svk5/PXgdv4/Xh393z6XA8LlfX7f/9XVVfLfdcvn8H);lineShape=1;strokeColor=default;" vertex="1" parent="1">
          <mxGeometry x="640.3768884875783" y="100.69434100037518" width="48.35611701140351" height="5.923622092046704" as="geometry" />
        </mxCell>
        <mxCell id="kXeZMgc8dvFD3Os03lKk-98" value="" style="shape=stencil(lVfZctswDPwavWJI8H5O0//ITJzaUzfOOO719wWrkS1A4XryJstYEYtzOYWH9/3T225i9345n77vfh+eL/spfJmYD6/73flwkacpPE7h4eV03n07n36+Ps+/3566ZX/6cfrVv/BnxjlKvoPY/Z1fMJOL/998ne2Ph9eVfaDstL0j58b2lXxR9r5QLmN7H6kmDYgU0xjAkVzQAEc1AAaRSlaAAhnHRK0p+0A+j+1TphiVPY5QTsTJ2Ps2ti9MRacgUWZg34izTYEHgJoosCYciUHOmtt4xMQgpC1SqwqQK3EFgEJNnyCsMgLI3zqoNVNGLjUqOsu1LKU+AhiXaiMPCrUDNOnmyXvQCu5aOFdEoHDHJ91tLVFEmWtUNWuJdAQ+9TAZEnWJwzARuj1vkR4BYrGAhgGmXG+fGAH8hsOdsDoDyJSwS864FCmBmfQBgBdWQ4BuamlCxhy8aYhKEQNYk5aGcHcSp+eetFzEpFPbAHDiSrIuMa7WWizphMdG24Q1gjx81KNMCayHWzWvaqNg1s3URqaKM1cNQFKNXcqmvts9DkmfsIrDsEk3XV1wgX8SUJb5vkoEEg497HoyVZnHiIOUgtlaCSoBWaRehykWOGhkqXnNITgKYGuJFjBrzss4BqS3YsMH2BEp23EsANTVMdtR5mXzgih1PaYbQgRQBid0xaebVN6gcu2a0pwgAx8lbpkq1zR4LCkXgivBlECeRXTrmIayBG1gbyZryHDpuo2AyxRAVVxXx9U+QRXgFt2y4osUpcwGXXQBz0ixN9/Hkn4zg7ktl4KRvY6PXAEYxsfs/y65cXw2BYokvbMKXSoKrVrJr/GHYT1/9pJ3314ebjfKl8PxOF9I1//bG6i8mm+v4fEf);lineShape=1;strokeColor=default;" vertex="1" parent="1">
          <mxGeometry x="682.156769092004" y="101.52347034968909" width="217.37854062101786" height="15.721700372917269" as="geometry" />
        </mxCell>
        <mxCell id="kXeZMgc8dvFD3Os03lKk-99" value="" style="shape=stencil(lVfLctswDPwaXTEkQRLkOU3/IzNxak/dOOO4r78vVA1lEZI2k5ssLWhguXgN/PB+fHo7DMG9366X74ffp+fbceAvQwin1+Pherrp08CPAz+8XK6Hb9fLz9fn6ffb04gcn35cfo0n/JnsoqdQRqvg/k5v9AX/f/F1wp9Prwt8iuR9jw8kcd8gC8XaGYRELu0bFEfiOgMWynnfoKoBdwaxNCe3DYRc7AxSogyC9s6R633KgRj5VCn0UedKyQEDppo6A5F2xDZNiXwfRInEgFdJNH5bGChxDFzKqdE+G0SqArShtEtvIFTBP0QVU8/SgulNC1bt9HKthQKIOkQqyQbhgYFXXvurLoUiELjmS38PkpseN/FKusEnikCtK+mJSiUgvPUnUAR437JxxusbIG0Vfp9tquwKhKreZotnEG8iWeE9kIRQSqvzgT96Wu+/uPZmJ/lXF6ZXDgjyM3+LG0AFTA1CX1Mltkzac0n6LFANZaDRSsVoKEMNFWJzvlABDmXKBl/gHWhSZouP4A6YfLD+IM15yqtiijqCo7TiE8XrVjkTof/O1hRVRIX+iInXty66E6/lE5d2brezyBl0vtbEdU4C/eTWJxb4APRZmnoX+AL1XKuNt4Ci/lm8EmqKnE4lBRCk/2AysuCRQltf7HNeu3ECLung5foYSm2VdfsOXJvLZgNNYuDSqAETA1MGQY9JbmRdoOyUk7TqTQLyQEMsvUs6TqLCpST6PjNThVORDk1iDAL5AoKOq2kzwNqSV1oKWNxRbPXyAucujm0EmlmCJDFTMi28zZJ7eNPQEtwROLTiOVMEG6bizYjAbSnZ88cy2lr0Ht7M1p4SuDHl07RLTX7EZ2qf73hG+Gz9cW0h2cYXO7J8MCSvlg/X5uxtwbm2y9zxGfDz2Z3xY7w+3BfUl9P5PO23y+92odVX0zLMj/8A);lineShape=1;strokeColor=default;" vertex="1" parent="1">
          <mxGeometry x="891.9558444656254" y="108.02844890129052" width="30.129115924803124" height="36.1115080007384" as="geometry" />
        </mxCell>
        <mxCell id="kXeZMgc8dvFD3Os03lKk-100" value="" style="shape=stencil(lVfLctswDPwaXTEE+MQ5Tf8jM3FqT10747ivvy9UjRwRjLfTm0xhBXKxC9BTfHjbP73uJglv18v56+7n4fm6n+KnSeRw2u8uh6s9TfFxig8v58vuy+X8/fS8/H59miPnp2/nH/MXfi24GCnVGSXh97IilOXvwucl/ng4beJTpSBdPEfSeB9QAhXuExRK+T6gMnHqAFGpMQA0KtoBcoQZmr3ut1QKCQIU0n5LljOE+wAV4tgBWoUsqR2xz6Bl3eRdQOgBlRIonDbivnC2EhsAJNKeVsvJCBCoigfUBGjNVHvtcQiQ12ZiKj6FghQ1kw57ykh9QiF5mpoCfSulARBAIcqN9k3lAnJQI3WAAjPMDup51UyMHJSo9nK14iNtVCVxGawLgAzNvpc8oBYA0IEl3GfsdVN/BuigOmQwloA0TDlJhzrU+4CNmrelRhYyreVBTCCF7YCbB0CahMQVwgwBtmSNyw2I2XKoWQrFPACAg+qtcW37BpJrJGEPYNQFgh8pc+/DlsvuDKYWINePAaBwRai4CdEogTpk23F/aJtBEdQhJ184m3IFZEiD5ewTqG0k9oAUoKljWFm/3QUqVSANzqsQbhMiQ5YC5T4+QUsP/oyQ0rDm3tyVgOzYzx6mivj3zuR1Yn8sapK+GwXoYw5rg36PFzBqOfl+ikczD1MKxxt3Wlw8AynYrTEP5wUGE6VSPZ1gP9EGv5Ma1vJ/Xpz/HW8P77f0l8PxuFzyt+/9rd6Wln8E8fEP);lineShape=1;strokeColor=default;" vertex="1" parent="1">
          <mxGeometry x="892.8929723693582" y="112.401758902702" width="7.4973204130909235" height="37.92825485410788" as="geometry" />
        </mxCell>
        <mxCell id="kXeZMgc8dvFD3Os03lKk-101" value="" style="shape=stencil(lVfZbttADPwavRLcm/ucpv8RIE5t1LUDx+nx96UgrLOHPILfZIuz4jFDcif39LF/ed9Nlj+ul/PP3Z/D63U/uW+TtYfTfnc5XPVpcs+Te3o7X3Y/LufP0+vy+/1ltpyffp1/zyf8XXCOSfyMsvxv+YfJL398X+yPh1NtH4hDY28p8317b8ibxj5RCMBeKNnG3gSy8T4gOHLtB2ygBCIITIEbgEskFrjkKcQGoEdYFLOm0DWAaMk4CLAtIFkSBIjk2xjEUAYxhEjSlk0yOfCFGChLA8iefLoPSL7U9QZIlAQAbMn6DZBhpVMszKwABgCEKbsBAAonoWS9AnC+D8hMcYjBgDpoEoWHoIFLmsQxBoe+kCnmHuCB4vS1DICIXBIKpgcgxeWw4pIALmVTzqsAGcQgibiVqGEmRqVWRfqHECn1fWPDqeRWyCGI4Fw0XCcWiVQLlXpAAHxNtxBrcoDSJUMiPcChLIXC/1oRyCU9b4gBSUg8mcElJFLtdDx+wQD6uZVKG8RXpd8gUosAt9d1HYBLFTnrUmNZm0FDCck6lnZd0xWw72GAT0PUqWwf68uGUOzy6kvvWQXY3I+IecwByRnpJTcPUuCSsb3kNka1AlILmJcBwG+jaW0Hqa4bSEG6gfm2vW4sNLogdXSdVybAJd0JOwXNSxlwSYO2bT9OsC+FMgOrpRL4M2iBSwbumNt+xXVgMTHkQmeOtOxKJr7MDTg99POc4UqS+3aqsW/QU3p71FeGRRIPwfl17O0R1VzZPSp7kEwb+2nApY2t22uH6P2xQI2O++HBcA1++Hq0aa8PX3ext8PxuFzl6vf93U3/Wu597vk/);lineShape=1;strokeColor=default;" vertex="1" parent="1">
          <mxGeometry x="982.156052064815" y="70.82311958949447" width="7.634749694036979" height="253.01084806135285" as="geometry" />
        </mxCell>
        <mxCell id="kXeZMgc8dvFD3Os03lKk-102" value="" style="shape=stencil(rVnZbhsxDPwavxLULT2n6X8EiNMYTePAca+/L1VDmxWlHbtA3xyHlKjh8PTO3b0/P7ztd5bfz6fj1/3Pw+P5eec+7aw9vD7vT4ezfNq5+527ezqe9l9Ox++vj5e/3x6qZP307fijnvDrosdkY1Wy/PvyhXHE/Pebzxf5l8PrSt6Q84O82ZZfTlvkLZW8LR/JFS2fA7DHUDRaIXqgUMhkrWDKtoLN5GyvYMgDBZcpqRu4vWqqEOTfqVNYTphjZCj38pFy3JZPAmH/Ag8xzZZcj6l4EUCaC0WFEEVgf/EUXCfPlMD5JVEISt4g+aLtZ8xp5oGl0AFygQI0UQQOEHlWJBWPoQsSpR4hW1rgzRUi2f4GLz5z0AfqCSFgUB2lXiEGsoBFRQK991rlIbrBUlCoJipYQSWjbGAyEgWV7YTqKHKqgrrBE4NQntzgqVisoGI/4jeYBuKikIjRG5gKa4WIwr+Q78mXJQWC+KkGqBskySaYYFKPkhjpUAaLFPqUKjCgiIvCnD4ehL8MIi5EKr0fJEJQHZH4ij1KNQYBrI4p9I6TKI+AS1KpQl8LS26u3KqFXsFaWh6Zw6oDbpUJ5yjptFQvAG+WJDPIMyCG19VfIMoAIq8LZ02cwMszeRQKnjxr+YBIMTggkYfnq0Io8g7ar5qdKg/PjwOeDuKv41LsB9lrKCIVH8Af37LtGn+Q7Hyrkmv/AkLPzkedzshPyRsgrQg+ij8ZdkYj/hmWj9G/mQzER/Mnwyw38lPkoX/9wLcC8R/jK8PzJ/GI433gc8DvHVKuh/wPQ7x7yGddlhKsY74VrZvl02g/jq/BX/i9OQx4/kf50Ni+4lsAfJb6ouQL7G3S4K8CO5VaIceCBAhda3DQL0DTYq3yygURDrzSR+gqH1pUb3Yq6g2uNTtbvZD2moXDRO221BsYNh7SzyleSwOIeJGjTtS1xcQ9qe3fkHFlFYtVeyZ3JtQmGz3E5gBhFYXUo1RbfYBSVQhaAXbuRodDtjCdlmExkPnaBMW9HxIumKLge5NkqIOzu9MDUbwyZ/qWEVeDKapREi4KVm/xyJW0STJcW2RS1klAxveEpsCi35AaubbkVR0RvyAvLF30x4LDIyIl3Vdwa3w2FzRqC9fy5uYCSNuPylpdMPX2OzynWN0HBtiGR9MI8IF/AHgGHvocWDZd1n2vFBbU19klu924dJS6Y8e9Ka5sKt8ZB30Q9Wgj8qiVcsMKa1kI3bwoTgDT2SIajXI8AHTtfDPaAzjEunURedSachsE1vKgfHBLamv8QQyMK0rXmtub5VHRn9mD1hmz96KdzwxPAwg98xfKiTM+oD3av/7wcV1ePnz8yvJ0eHm5/Eiz/r/+VUa+uvyi4+7/AA==);lineShape=1;strokeColor=default;" vertex="1" parent="1">
          <mxGeometry x="982.9960192128051" y="28.33068213731076" width="446.162776080685" height="301.1950612632104" as="geometry" />
        </mxCell>
        <mxCell id="kXeZMgc8dvFD3Os03lKk-106" value="" style="shape=stencil(lVbLbhsxDPyavRIUqRfPafofAeLURl07cJw+/r50F2pN7i6L3NYyRyKHM5QmfnjbP73uJsK36+X8dffj8HzdT/xpIjqc9rvL4apfEz9O/PByvuy+XM7vp+f59+vTLfL29e38/bbDzxnHAlJvKMJf80qB3v4sfJ7jj4fTXXwukMjEUwLs24DCUO0B3IBxG1CzBxSCRtuAphmzAdQKXLYBXQHFAHQLSdsAEchoAJLGFlsAx6rwWFkHdMjdAipglJL2wRYtDXpAqyCQS0nGFussZeDmAT3odOtDCHcACVhqBLhIiXMgjQpixae8pUAalYHI05oDWmsCdrTm0fstQHY1EJCEKRWxAIz90CBbQO9QA5aU1mYb1/9usdW4bmvoSnQwBNRAKfsTIi1picIeEElD5V3dCRJ6WoXgilaLpkCtCRHQmVrVEps6uc6VOCfVmi1CPRqeoIZY6LtFk6wuBpNAC8TUcZAyAHc8rItDB5f4I2rkuQ4FfRElckQGap4mDNSknmvZNwKjEz4KKAjF0tS06GBuZIJka6gSDhpOQDalUqAEnkvdzw29uls0ykDsAaRzIagZ/TBuUAPpLdxTh3bX04eUTHge3linB9iGE0hg5upHZAptkxCyfQAg9IDKlP11juNeWY8XP4xijykZFV18NLtIJ5HPv0Vs8sL1YW95MbgofO5w9/7K4R340Ufn/+P1498L9+VwPM4P5Pv//YtYl+bXND/+Bg==);lineShape=1;strokeColor=default;" vertex="1" parent="1">
          <mxGeometry x="1015.9090246921992" y="96.23294822680668" width="7.952036795744183" height="23.678328742264988" as="geometry" />
        </mxCell>
        <mxCell id="kXeZMgc8dvFD3Os03lKk-107" value="" style="shape=stencil(lVfZbtswEPwavS5I7vJ6TtP/CBCnFurageP0+PuuKlA1V9IEeZPlGXGP2YMDP7wdn14PQ3Bvt+vl++HX+Hw7DvxlCGE8Hw/X8aZPAz8O/PByuR6+XS/v5+f59+vThJyeflx+Tl/4PfMy+TiRgvszvxCS8O/F1xl+Gs938JAolA7P5NI+Xjzl0OH1hdvHR6baf99RAvbkQFkM3oHvF6ZQjT3J7+MrU8kdPlGq+3jvlvOXAyK5CE4o1mPNiRNACOS4T5n6wMBnT+w7QszEIKipUukJGmZBWVNCr6IilAqQRSLu06ZhYJAHEXtCrRSASRKoekvIyCS3UqrDWuJCcXVEAZnjtEFAXrNQXYVJMiBo+ZgwZRJ0AlMyBK1wICY1yfVyrapvZFIkbwjSBLwXpWKc1qJFYS1U+prWEoGp9uS9JUC5qgHZEipwWqJtq+oD6jNaEFFslCJwWrItas1DAn1mIhgfElSrmpTNCfkjp8UQtLeBTGtYo0lchd1eEyfJEpBJXJuY7wlIfDoPxRIiMEnlLc46jcSnBRRWYYUEVc4qcajfK6GYKKmRqIDEDlEVH4Op/mmClFbBy4AI5EFYdUJJ343TMmO2Z1a2MytKG93bm0NqUV82mWXs7Y1R6dU67QIgcUowjcyX1jy3TfLWB9UewMfVMqbjBCwnOkTZjjiYhaCd1RA0CGiZscrzDHWxSpri4aJBxVm8R7Vjx6EPbcpvO9ysvcM7gNdBwjY+HsTHEfMqARBvlskKZ61+rO8Uue2WO3CT3dTCteNstXAUG7aNMbYhupNasyYIzNQn7y0fwvXh/xXpZTyd5hvW/f/2SqWv5usYP/4F);lineShape=1;strokeColor=default;" vertex="1" parent="1">
          <mxGeometry x="1017.5089695401944" y="90.40863985834073" width="19.49467341110752" height="36.64104660098313" as="geometry" />
        </mxCell>
        <mxCell id="kXeZMgc8dvFD3Os03lKk-108" value="" style="shape=stencil(7VjLbhsxDPwaXwmJ1POctv8RIE5jNI0DJ339fblYaG1yvZP0VhS92esdSyRnhpR2cvPycPu833F4eT0dv+x/HO5eH3byYcd8eHrYnw6v+mknH3dyc3887T+fjt+e7ubvz7fTm9Onr8fv0z/8nHEtUG8TisOv+UnMJPOTTzPg8fB0ASiNavWAKtuALNTEADhRi9uAFKllAxBdEwC4UQsGkCtNX7cAUQFsAFVjCACQqScDaI1C3waIULZprZUkgSwFkmIARYhBWosm0QJSpZi3ATVRtABh6iBLtVGxQXMca14HdE8NDpBLLZJEy6U+NnkdIBQd+RpxBYA8krgA6tjkdYCWqXtAQYBOmf2WAuBSj5S6B1RQh65BN5+lCsjXE2WrBy1cBDH0RfILgKkCLimgWi6pphMonAKKrTQXijiGbk2AKzUgoCkGW2nJkK29DttaAHWU8jqgDwUvgI5dI4TBhEWjPGq5tYSTXErQ+rrS35JJXQCyrwzfWgAN51VtyHJDrSqgLYVhQxeABLakkgu2EKlTR5JLxMnHAEXNFGwMqVAHMWhXdE6mdSgoBg3RBp2WNbesz2VJyQRXYN/klK4JNIi19U2CQCs07zOiPQaxVe07e0BFkkveXHVL0DaqF5Bo4RC92/j5YnboIEuquOb0EGGjngCOGoKztOjrgnyMAMXHkBaVb6WV3ZawMWnh2LrxefzYokZYaZqRgDLF6LfEoKNMAP4TwF86ndiu+H86+XenE7cCnk5UQH46UV8CK+hxoTuJpuG2188D4iVaGdJbO5o7lylZBGyJM2Wnh/OAszEAefapeyI3Xs1LSnhEPhlzwhJzgP8fhdJqmEE9UWN2bi8Btoepizv9MBV0PM5+EGBKQA16/s52R7gG6wN+gDxSE2N272fsYY7ZEXeGOpR1jpexclxCBc9J6j62L6jJIsMLfr4tQ9vvfP+N2XO1n0kVaG5bBawMigiwyuhEcyDkKyVL8OSz5kTMuBMGL8w3bpXecQ2lH86XWPeHx8f5Duzyd3/ppY/mCzP5+Bs=);lineShape=1;strokeColor=default;" vertex="1" parent="1">
          <mxGeometry x="1043.2657386090168" y="101.20951723855842" width="16.54932124858078" height="20.645447221787094" as="geometry" />
        </mxCell>
        <mxCell id="kXeZMgc8dvFD3Os03lKk-109" value="" style="shape=stencil(lVbLctswDPwaXTEkQPBxTtP/yEyc2lPXzjhO2/x9oGooG5CETm56cEksdgFwoIe3/dPrbsDwdr2cf+7+HJ6v+4G+DYiH0353OVzlaaDHgR5ezpfdj8v5/fQ8vb8+jSvHp1/n3+MOfydcqsBhRGH4mL4wpPzvw/dp/fFwulufE7Ss1mOGULcBpUJLCpAYatsG1AaZFCAjUNkGNIasQyoJxtctQAwBgibdEEpwjhASOqYmeXBISEwcNaBAcPLaAkQTUoXs5LUSoGbdmsuhMBQd0l0e1rWugMkewewAImS0JJJzAmfgogHZZc0E3KwQXkgCCEYI7KzWAam7cwb4WeIGQXujVlfqPFtnBuSet3XlECJrgJSQw6GIE4oFFK/myoJDhuTo0MR92q6yRSUHUCBrHaTOi0NarFaNcLEX4RaATUEkV2mxWjMlJ6SjA0AIxhq1p2E9rdKZtHASZPKEk/0WgOZ112B739gFHECmXl93HKrjVhYzmyZQgJwsSQGR6ZUM6JiPcdFc56L9AsDxEkcgrfTYDJ0sjVNRKy1FW5wZRNKsNUC2qE5IGPvveY623p9XAWHRliA5AS0mXOkBbixnLbI/oxGSYQvR69pQtF7YXbsxnyHo9hUhefOc7Sic6Wzl3iRHDnRmiNxwmt3fmwiE3Vy39eSkR8wTyfCNjrZpvqzc8klOZ0wZUO9P7jT46p3w/+vl4XYBfTkcj9P99f6/vbDKp+myS4+f);lineShape=1;strokeColor=default;" vertex="1" parent="1">
          <mxGeometry x="1062.5841534839087" y="93.75677981354386" width="6.407974663162577" height="21.112593766704702" as="geometry" />
        </mxCell>
        <mxCell id="kXeZMgc8dvFD3Os03lKk-110" value="" style="shape=stencil(lVbZctswDPwavWJAkODxnKT/kZk4taaunXHcHH9fqBopARNtkzcdWBIL7IIc4tXj/vZhNwg/Xs6nX7vn8e6yH+L1IDIe97vzeLGnId4M8er+dN79PJ/+HO/m94fbKXJ6+n16mlZ4mXEhUg0TSvh1/pIC5fTvy48ZcBiP7wAxUfOAyBR4G5AzZXUAJQnb8SUSi4sPxCi+Ucsunol1O75mKsnFC6W4Hd+Esl+/UG0gvhA3n79SrQDQSItPSElBCwxQPYNoOxSYUvU7JKWCOMQeoIkkg6LW5fcCyEwR7FBNZdEDIiloW0l9GwyAdsi174OaUkBZszXaK1txSlqXIq5lXc3xOcCk4UlPbgLeMYD6lCSRItLmxQ/iY0Q6UamdulGjC/fzQoiB9Erp+2zuBIxrWkr+5n5B5rF8/PqmbJB/0z7/INSQFSo1XyBjLIBB4JXh2uX/TBjTUWdPkyLYwkikTqlhccdWlcSTMO1+HwC8kCoFb08bCaiukhchLwArg4KUTAh95xhrKWRqXks2OQvwp0lBfCNscmY0xZaTZo1P0A0mbi/W2ogB50Ctixc4wtaZu5o5EwP3fFCqDU10kHA/LHJYDtPPe0bFr68K89F+WKRGETSsUfLr2wAuwGnfvu18AWAPb5er+/FwmO9m7//3lzH7NF/k4s1f);lineShape=1;strokeColor=default;" vertex="1" parent="1">
          <mxGeometry x="1071.6324265584426" y="98.85547357895825" width="8.421366235357558" height="5.67472770362798" as="geometry" />
        </mxCell>
        <mxCell id="kXeZMgc8dvFD3Os03lKk-111" value="" style="shape=stencil(5VjLbhsxDPwaXwm9H+e0/Y8AcRqjaRw46evvO4uFFJPOTpNjkdt6vSOJ5MyI0i5ePd1dP+53wT09n47f9r8ON893u/hpF8Lh4W5/OjzjaRc/7+LV7fG0/3o6/ni4WX8/Xi9fLk/fjz+XEX6vuBwl1gUV3J/1TfDS1zdfVsD94eEMkLIs/50Doji3DYhZalaA6KSmbUBo0p0CJCfRE0CQ5BUgB4lhG+CrNB1DSZJJDKFLSRoQpWcSdJOsZ8hZEllSrNL1DClIJXVYAF2ntUvqdEklakChWcJ4JksxSiKFS34sYAK8OAaIknXQSHSIlHxNcwlk8QzQJOglBdSecCmDm8HOEBoBTPafxZDZDEl6s1lKJIZcJFdbh07SmquUYivdWAwI8UJxjgCKH+NNekdauApB6iUV0JEorqMOGlAjZWuP1jVqkkiy1IvVdMUboumOFeugG7JEKt37oNoEJHGFAromX2sSiaaxJGMCPQxJvQ6o4vWSkAZHbKZPY5wApIEF7a0ZL1ERAEL01QKYRFsekj9bEqt0C4NqE5BppVHXlmxaWaUXImhAm1vMFiAYLkW6AzUvWTtf5TaD8YqmBujNjKwVW2kIyLMYutUDJMpmQBLbBaAxxaF1MDHMZmJLD84A2hhiS3EmrQtZiES9c9bvkTjWCmAKKwg/7HZLo83we24ZW2lKBoAhWNRomC4kV4h9o9RB8/ssD5uI/C7EsiEY0XGV5m6NA1ZSCWGXvV0DwI5EZkB/Uk3bhwaE9br/SxfHgv6QXVywdfgAXRwElDQAUTGJIq2G3vBjT9gKanjT0OANsVfkxLR90HQhAgrJ2jHclc3g5xlmAhytdBoRvjGEi/0BxtaJQC8Pr2n42uvOOnqdSYs29ovXA4Y/mAMKJ17AdqJr4D1tKhNqoD3JcSkE2/zwnQEJCcV875lyyijQy/esAlBa098HbhawNy3lRNdT5vXFpMSo+db33ZwbpJN8Fm+7z6Vg7PjmbG/oE21JEHEzAJyVWEovzkr+H3tztU6BokUig5zHtnd2cZUY4L03XW8A4OHlYu32cH+/3sud/28v4vBqvcSLn/8C);lineShape=1;strokeColor=default;" vertex="1" parent="1">
          <mxGeometry x="1080.9269785530546" y="96.03467921443632" width="21.90854654787851" height="16.374453893002304" as="geometry" />
        </mxCell>
        <mxCell id="kXeZMgc8dvFD3Os03lKk-112" value="" style="shape=stencil(lVfLbhsxDPwaXwmJol7nNP2PAHFqo64dOE4ff1+6Czkmd3fQ3NbaHUsczoykTXp42z29bjcc3i7n0/ftr/3zZbdJXzbM++Nue95f9GmTHjfp4eV03n47n96Pz9Pv16frl9enH6ef13/4PeFKJg5XFIc/00gUSunfyNcJcNgf7wDSKBcLKCR5HZACRQtgoR4AIFHMBpAqNQAQocAGoCMVLClX6tUCOlVZB7QwShyAnCj3dUAMgYLltQhFXkf0RiUaQGWqEQCYop1BV1kAIBeKture4Qw5UCse0EHVkqnMAAk0QuLg5AbQVlegjTpWfANkqkhM+rpbQKJQICDbVvdADAyhSwrJ9qFSBrSKSsP2oWWKDeo7iQWo+pAhOollqTEVIL5888s9ADlIldNmSwI1qPqdH7ToBFgqhbp4WguQRmmUnJbCoGEZoClga1BpoE5rVnYnjUwNsFSYxPmhQgNpMM0dJ6hx2ibL0l3yLGujDkfeTYF4FaZs9a1RBQO/DUfeALpDAG2kQpx9IzpKgUxiq+5xZNvaDK7opmoBjdAa+kyuaNNSlpqzHK5Bbmq+s1xDsfFZgIrJ7aO1jr17zdQuNtSEyNQa32IdVOLw1CKAIxVLqyZPABvvLIyVZwZtmO263OD/qx1txTGPFFkuQIgdRZQQQ+xDiSmgnnVi2+QAha0J4wjC7tcIczINw3troeoCKQzGlvmMPixUECBSa/InhjQIWP4++wODUEP9zeP1R78y/r7a9TRikBNVfE50aACtN7njdoSHBSU0uOM2jxPN6jboZkjwMPzpG8B/APTh48Lxsj8cpvvK/Xt/QdGh6XKTHv8C);lineShape=1;strokeColor=default;" vertex="1" parent="1">
          <mxGeometry x="1107.0100167538608" y="96.91197479226685" width="12.839136393710458" height="24.19381482900955" as="geometry" />
        </mxCell>
        <mxCell id="kXeZMgc8dvFD3Os03lKk-113" value="" style="shape=stencil(lVjZUttAEPwav07tfTwT8h9UYYIrBFPGuf4+rZg1mpHUFG9GTO/O0T0z0i7evD7evex3wb2eT8fv+9+H+/PjLn7ZhXB4ftyfDmf82sXbXbx5OJ72307Hn8/3l79f7ibL6deP46/phD8XXJLcJ1Bwf98eVGnt/5OvF/unw/PM3jeJBhAl1G1AdOKjAsQmqW8DkpNcNSBKKQRQJWlAQAyZuNQkZA1oUj0BeKnOZqmToEOXrrOUuzRHbogSvQLUIIXckIL4pAFFGokhR6lFA/Io5SqgFHFBAUoaT1YB8Lhrl3BnYYAuznDJSSWAliRol0KRSNjamo3B+0GWdQBc0jGAGWnbvi/IWmjZepCk1ZAlkQB6kmRyKoEUrV/z8e7Pm/zW7ZEgLQUQm/C09yH2a0KdJFIyALqpQBwp2AToDHmklBAbgKjF6buUD2LWtAsQEytasUULkcofVcvaJfTZxlwKoyXOAJRHbihr5lImWZqIrYkRoATSVSfpaOah9VfSVVuVYuqQpRDtANAMIFAxwKWiXepjem0lyai/0lHV0eZN15bK7OP490ycrFnkkcDZ+cy+So7Wf6a1ZrXWKSegHOP/VACifu+Q0UWNM2ERrsiadmARG+afB2CKmXUhS2cs6mPGXKuAwcWkE0aI154KMRE1V4wpDcARkRS6ZCtONIRCCpGLrQNqz1oY9hWv94tZLTeXpGqvaKQQIJsZzmiDgaRpakBaDpjvldzgEYTRsx9b0DpgMQ0zV+jU4nTlYh93rscQxziezZLOAN02bgzQzOpQFzdQ+5QHN4c9rzOo1HRTLYMq61wN9vyp67ELmr0AAm2kbUOOpgXgFaOzFwCsmaavutEU1nMaxnlzXpAYQFWv9VYc3WLQubVH2KYLGZ7FriSw74SoaWw48/NJiqJ940HLaeT8RZGx+2cSr7drJGhSSY1Rn2LzyTb/xdwBq9j2srTnezD8MQyKtNl5m5/sabxh4Y8b69VWvXS7TvwN9bOv8R/b48f7N4OHw9PT5ZPD/P/2GwMeXb5PxNt/);lineShape=1;strokeColor=default;" vertex="1" parent="1">
          <mxGeometry x="1124.1316721435837" y="98.52419349996376" width="28.028042965028895" height="17.71184744795941" as="geometry" />
        </mxCell>
        <mxCell id="kXeZMgc8dvFD3Os03lKk-114" value="" style="shape=stencil(lVfZbttADPwavRJL7v2cpv8RIE4t1LUDx+nx96UqyBbpaIq8yTJHXHKGxw7x4W3/9LobJLxdzqfvu1/j82U/xC+DyHjc787jRZ+G+DjEh5fTefftfHo/Ps+/X58my+npx+nn9IXfMy52kjChJPyZ3yRK/d+Lr7P9YTyu7FOhno29MEXZBuRKWQxAXVYAKJ1SM4DcKPA2oAXKbABVKAEPrVO3R2pMLWwDOAQKNktdKBfgIlGzaVp94+PEalaqdVGIARNKVEg2Clm4+TiK6IOomRI60vLvYl+ESgJUdx90alQjoFqJFQ/gtg2oZSF2BYggZuWBbVY1zwKO1AMlC8gBxtATFRt01iyBGJRWcR5ULIDonn0MWlOMjsSUigV0YpSlTDlapjVoAKiVercAhgAtapcl1VKoAKBdpXoPBXjQJDotaQwZACbluCw1aoC4lH395EIN9JmUSFwnS5SRh3IHEIpAGpM2LQ/6BrVvVU60TGs9QB7yUi6rihNUotEzPQFQ++ZlHKwADfXWtiRxFTSDGHr0Iyjzot+tEg02aCWOQefTEm22F6s0EHE6Pvqd+DLKUqVqh5zKW0DQOhWLq2mG0pgA6TMA1aYLWsVSsJacWrWPVMR09AAd3Wg+TD3CBq3cN3AkrQc3424+tyouW3nXBHtr1InmukaHTUDHbrRMJyYB4mNe6uu6kglMa1imx5U3CtA8+A0RZYiXZe2671EGp48+PQJ3Et2JbN2oRsEo5LvDByhRvtt5AlzCWPXIzh5teRpuK/77YITIdb252cNsirdnuO5ErViffgZaiDr4rXYi7EKfvV78314fbneZl/FwmK9C6//93Udfzfem+PgX);lineShape=1;strokeColor=default;" vertex="1" parent="1">
          <mxGeometry x="1150.1643272129136" y="91.32509627971297" width="7.638904896412366" height="28.583905918581916" as="geometry" />
        </mxCell>
        <mxCell id="kXeZMgc8dvFD3Os03lKk-115" value="" style="shape=stencil(lVnZchw3DPyafUWBN/ns4z9cZTnaiiy5ZNlJ/j492XA1AHdapbc9gCFxNNDAnNKHn/dfftydov58eX768+6v89eX+1P6eIrx/Hh/93x+wadT+nRKH749Pd/98fz06/Hr5fuPL5vk9un70+/tCX9f9FRK3ZSi/nP5oVZp6b9fPl/kH86PO/kosVn5LDUfy2cZwcrHeeJN+e7lS5eux/IhS09WIUoPxIAoLRuFXCTEY4UEk9UopCZaiMmwMBqFOCSSK5UkwdoQg3RypZokWhtCESVeakFGMQpDAjGhwenOSdSpPUnp1gKJJIt6lWJ9GqYLbst3qfb+Knkcyw+VUZ18JFk3kqTh5cl9RplJuZMnKBhtlWfxCnr9/zUA/3v49gHDwyBEyUwBEbYewgmZXAkmFHtCVn6l6nEDKGeSRHBqtNhvQBKLMkqPVUAesmIEhWxtQKKwaoe8GNYGuKEyL8X5vGsclIcaN1ALNTiuMqwVqYsRkYO52VB33JKVlyHDFrBWabmoKsG6CQWnk0AUKFijtzMbqalBYvcKneRGypLsCU1nDbzdF4YkZ3SkfSGWeYGrAqoIOyH53tnyLFO3FVS6Nbo1yeSE0H1Z7chvVmeqr3s9096GduvyG6W8ExtCmlXlqtAmpm4rLAwDCR9IpEOQ7NzaafeEgro6g9RgJ6hUl3yINGsnvnuCk7AwDN89S5gYP5B3Pt3wxEqxJGtwvibKkbwr9XWWkKP72O68USpWh6XaiOVE6cXw7AUUa7AIq8+hzFknFMrwCo3hQD34YQJzKZIu2PKSM4dmWGyotMxDwUcNSCNZceOE8daVnA3IU0Z7wlLAAIRMEjvogoREO0+48rqdQqLQGQs0WVtAqlYvrzS1HRQKr8Ar1IYoaYQrlNsb9rpSAWhWaq8HQqazC0qdgyYCxpEWrEOBtMqxnBdosuIIhbZAkzaQdytET4VrmGE5aoLquEXm1SLP/nJVGLQCo5E7FgmqwLgzqIJj57hSJokNMuJGMHA8JSfEZaqtnQ5tcRmqaqWNfBur3TKiSCHJvZFCt43INHA3aCesIvB8bcR7BeJWUOe4XIkRKnCV4BQGn/3HkhqFshcwOjd7Yl6gk54uHK9TJowpyY3nffB5O/nA9cBHw+QpQ1NOSbKf9EqRxgpfnYmwWwsVZkPzXtqWHu9aGrQ5Zh0uJVxm0BFpLNS80hlsW6p0fx8CTyRBczx7oulwKeQGKinkPhj2m0u7ySuP5uBhn78xIDY4Rw+1UOj0X5c1EkLMtjAgK9EpcORsvc8qJKQpOSHFhQCk+Yij/eiweV34LL+tHp3CoHG4rh53VbszJy19ZPCxeWbNbpBnmy31qzN0QlZQ1VPCTZ7Yq34obyhOpFDosrlIFAdLB4G80uf7ZU2cJx7Iq/NPoIVuWV02pZRT/TheOdfRuaHY8Qq2UVh3TZ0um5eRojbKW5buB3klneO9r1zelseH1/c7384PD5fXQ/v//fsg/HR5l5Q+/Qs=);lineShape=1;strokeColor=default;" vertex="1" parent="1">
          <mxGeometry x="1014.6345857816832" y="120.85202046713493" width="173.2916320158457" height="32.42164599264129" as="geometry" />
        </mxCell>
        <mxCell id="kXeZMgc8dvFD3Os03lKk-116" value="" style="shape=stencil(7VrLchw3DPyavbIAvnl2nP9wleVIFUVyyXIefx8wW6SWzdle65aDb3oAMyQBNNDNOYUP3+4/fb07efn2+vL8+91fD59f70/hl5P3D0/3dy8Pr/bTKXw8hQ9fnl/ufnt5/v70+fz710/dsv/0x/Of/Ql/n/3EhdqdvPxz/kNxLfz3h1/P5o8PTxfm3gW/mGeX0nXz5EIDc6/XzVVcFFhNisTe/q2LvT1BMlm+vT+uDt5V8oaQXMqrQ3SF7DgGlxM6VHKisbkCSwqukUNKwaWKeyiNOCQXNwepxCG7soZB1aVCHOoI64UDC3QW52FJMlLl2MG2GBaHNjLx2D45XRO1OiWJkbNrmHnK1lNcxcxOQuyrK+sJJVfJespWl8kVErISRoDe7Flhlnkcb/aerKdGtI8uk/XU5vJ6/mEE8NC+RSfr+fjxgGN7Cw8kkIvs+dXV9XwMash+WxvhfLMXEl+zz4r2pADMvqC9kniZfUV7ut+G+SkUhcy+AWy5wNffGthXghAq8/zeAhz5huEFwcm7NjBh8uoBrQlkGXgjAAL2kTSOHmC0LzcSCO1ZY7KE9mtCt4F41wpGIGAGqSRiLY2mMh3KyNlrJQw7sBA09gaLEGCEUtBqhgnrnqPBJKti63Nrb7VuS9+gLq8OqXDc0gEjsw9E50njMIew7sFaQ2ZLssJZHUoa53YMvXWMQNOh0O5t2N7W3loaTY1q2LOCUfW02GzFsIeaaPvIzfk1l2xXbCjKAR0s9p7Um8U1rHhh+UunKIv0Wg8t0xYeEyJGq3Qo6skMJd0o5tlwqhEdMnlDEOw6HdbYvFyw7XecZQ4Rj/UC+Y89/BY5nn06V3Bxro1UkOFWhWMqdNdq0LcCk4WadVub2KGZGHoKSSbD3gTJFGm66mzH0yHwgWFA77RX19jAtmW30P5WsJ1bgdLyGaxp2mfaHOJmz3mXtZo1ZFVpvw1IBA0kmb21nvV8irWKdxFlPyb64wDj+pNQjqaDGM/eaWjEigAL2U6Ynb/gvKyZ9rXdnhMQGXD+gzRZtnnTCoaVpFOgsGHA8RV7FAb4/KjIz8w+0+ejUhE4BiGfsP0Gut+8nQ8DakWIs3hlhljYOfQGJG4yiLUSJv1sOksZw94V+wjxqrRXWrwE7ZU+X8v2fGoPk6bywdHyebNnDUCww9j5J/r8vR5Z/gvyRbNnSppgE7Z8izS+MJTqROxr59/QnuGtjuq4rF+eP9t6WH/RTXSLtP8qUpWuGzIpc6uvRPvve+39qI4L/FfavyLQ6Uzry290ug0EvtJ/YU7MSvtdQJXUKIKQ/UbU/0qg/SVhvRsHYoJGRr3KKJAyCoR6VVfUyPor4me9gc+yCZ6FCgK6VYBNcLSCPaZcbVQQ6BUOU7FQEtchat1DJ3Fc/4epyabizOiJDVXgEClMd3YCczefazoBiujA6EzPjLQ5kMB1EifoQFnfpoWbQ2B3GHLEjZnD3OJFHOgdxta+LdJM1DC67nd+wgUBhWwtdA+GJ+gQBx8/ruiIFMsoB9N8q+AM0jkHw4CICoK9k4FAnbx2OngqOXSZHqQfocS1bdJP5nswB1AFLTKRCbMyeMxkQplfBSgqoZGPgm3jWqFyzc6P1jGbZ+XaacDUMOChanQ6oB9MIGsZBYRK209XPNY9RwoBrY7rprmgMbBek69/3pf8vC9Z7f9n9yUNLzBZO7CC8WvN8wvYNo9jIik9/468MOA5T1Cuj4t43+PZvFk3Assrst8gN3RgV9plawU6RZrjDmuYApxL6SWstRYkmUpFkH6LX7c3sCUlFJ+7Msvu8T2mtfKL7Sw4D3ah68a3FIAsaWDZsUPePiDJ/OojoXZoDoE5BLzMV57c/ZsWCBz//OLgq5lG5aL+XU5AB8YHjbChoFA4gS+bQmAIRipU513kRfIxCS4d1A/jU36TvJQyPMGWbLnNbhq3j6+6PZWA/HajzCWpvdY8laCBtvTzpBIWILDyb0IEKXzHL/58QXuGRtvzZ1X82PIbbQiy0RU6h8umP9D5b/s+i6uf7/yK8Ka5/fD2weKXh8fH8/eOl//HDxztT+ePI8PHfwE=);lineShape=1;strokeColor=default;" vertex="1" parent="1">
          <mxGeometry x="1018.8209470014008" y="164.41259205985546" width="266.33858975268936" height="49.45053823822302" as="geometry" />
        </mxCell>
        <mxCell id="kXeZMgc8dvFD3Os03lKk-117" value="" style="shape=stencil(lVlJchw3EHzNXBHYlzMl/4MRoswJU6SComzr9yp4XD2NxCCbvJE9CaBQa1bhFO5+PN5/fzh5++Pt9eWvh3/OX94eT+HTyfvz8+PD6/lN/jqFz6dw9/Xl9eHP15efz18u/3+/78j+17eXv/sO/17WORNsX+Ttr8uHZFz+78MfF/jT+XkH9yaXAR5NK2u4bFZx97CGN9N/GuA+ruFOdkN88ER4b5pDfF3jg1ddXPGR7B+9Cbi/I/sn0aYHbVa3xmfZvwH+/w838cWZMu4fTEsE3/T4Kz6S/Ws2MQLeMvNO8njjyf4tqriKd3rgbXwxdpTHUn22akIGvLXE3+z2+3VBYBduJo0XqKYRhxCB4hgvLquLr27sw6jRaAoxcUumgcnSoQ3GK8dsLF9gISgLjbIWjB9PyJW6afMmjW5aqikkaYnftdHONZnE7GZVibqgfyELajVuvIPcqpLEWKNGyraAq1WuCKlUnMUStUrw21FL4o0senJAZ935++38lY1PeEQmMsXt590CdkIMWl52t2b1KVQ0tYRIIhEUIhZAMQSLUSlSkJRkQSSmliJQYYEEITG1ZEVbcEEiecxVk6cTAktkyWSHCzw7wWPakAWRxKizN06oxA4SwRG16olWi2atvdmIQFmZxM4vmCNFDd8NH7mnaiHYUkzTYnfb70yGlBQPiFcZ8SWbxLiRqeN9czGNyOOMA+pSqb0syp+siUQ/dqIuQUvXAg/ZKwgXIR46470W9xV+tG8QJkz8xxo3yh+s1urVfUf9SN6oVJ5UEM/sK/WoTni6f5vwB/6Q8L6JxKPTaN3pkyYIZeo7e7EsOvUp4g8srztsJSTRJ5YStZi+kxcJs2yIZ1zTYuULWXnSAh/LtD+Vx0/yRxpfLqB+Mt0f+IronxHNiSmLfQuPX+ClTlvNlfyAtwfyoP9sJ67iccRLvGQqf3GIZ/5pNfp2eMZhHRJMkZ/1ug4bA9Gno/UiTPmTdR4fx2doIzzv7U2BerExu0V9hPws5DQTeYTQjPrJUb8s6jWMDor0usTfIuKrpflZGN4Yv9Jcs3okfAZ4rqP1rmA+7M0462g0G+zwlINOBaxtLruklNABWcqYbpBWS8cTnRZnXMBqWCfebRLpgNpPl/bEar3o1o+YobcnYDevllw2QBUXsMQYI2ZqaV2ZJ0kTV2ABp65p9tWDOVdQ6rNrHixzbju1iZFO6srcr3vaPtQp/sU1Koufgl1frZSAtImRSgag0zSrXeS2ICiJX41BEvQQ0gMR9+6uBkmyaNpfjXKgiqekQ4XVAiiD0hZUtiBif995I5v9TI1fHyIytRb1nG0MwplpH9rBpdXfVwc4HLnTYVTCAM3cag6HV4X6UZ/iIr6wwVLTxvA61GQ5r2wZ7opnKS97bSS3UNMB4XKKDoVExyHvnNJL7WLZZX4GcJZmyPmdwfHmeH7I6AuYD2E17+WXsKnpHabPZ1idwmcewVfaPQG7vs5/Vmx20iiLAYd5xVk64LITt6DkzuKwhE9Kp9670pw1DZMrreATvBw09iBMpn39dFWhmfSqoMhErzrZKdEhyeQGB+99H3urPITLH9dn0a/np6fLq+r+d3xGlU+XJ9jw+Tc=);lineShape=1;strokeColor=default;" vertex="1" parent="1">
          <mxGeometry x="1033.8442269857383" y="224.34918421111217" width="217.708881885557" height="44.16975857804194" as="geometry" />
        </mxCell>
        <mxCell id="kXeZMgc8dvFD3Os03lKk-118" value="" style="shape=stencil(nVjLctswDPwaXzHgGzyn6X9kJk7tqWtnHPf194WqUhahaNX2pjhYEFwAC0i78PB2eHrd7zy/3a6Xz/vvx+fbYRc+7Lw/ng/76/GmT7vwuAsPL5fr/tP18vX8PP79+jRYDk9fLt8GDz9GnKfiB5Dnn+MPgUL4/cPH0fx0PM/MAznXmbtMzMg+lM7eC2Xov3BnHx0FWbePxLmzT5F8QfYxdfY5k0B7Q0+R5mHFvvb2UqiC+BP5ns8ayQE+q41fMhXg32lAPUHClOo6YMhY7W+sHIMTQiTpr5CFCqJUK6APKSeYsxwoxx7gSUASSrFVkR0lvw7QJMU+bZkpgxM0SyZvqcI810KSLUAiAFTKhtaKK6M2EmeADDJdhaRawJ9iWQPEBUDQpYVcsIAIMj2wZABaSyik0tRkAkwu1gBpIQCoWocTekXSai0oD6X5mwAqIigkITYhhc08sAVAWpXEagHBwVpyYgEJF18K9tIMOk4BwhYgGFAXqiEgJMfcJtNfav1whGm50uR8DWCmlZbrRlOHRQchYVIAewuoKHMqrksAUjIhHy0gozsUO+IUwLjlsliWHG7qlG0e3EZTm5bLradWe3TR1LxxacOSzmkkrv8BkGRDqqhadQRVCyjghGHIVctSArTqGHXJ5iGCE1QkyiLTFdAaFyOo6KAG5R10U+h1piRIq5/Wqdn+gyb7sM/2iVPePDjBcZuB0woXoN6Xtn9N9gJbOtiOninb+3e2+5WWCupobzcNUU2A/s0I1Z1YQD/7hcKUJoPvM2oXSt3p4Y7b3hBm7wwC/HMTxOmdRAUM2ht10RopIGGLuRM33HN/3QArmpuzKXr4wsbk+8tqg4Fa4LZINHPeoLIkY44za/Zyhsw4Oy1x3buWlbu5A7PV29Gqd8dVbINBC79v+9Kd9wy9Z1OTG8H801v7prk+3D8QvBxPp/H7wvz/9oOC/jR+jAiPvwA=);lineShape=1;strokeColor=default;" vertex="1" parent="1">
          <mxGeometry x="1042.8037604238284" y="287.29684966999343" width="100.21802146777115" height="36.94406433375567" as="geometry" />
        </mxCell>
        <mxCell id="kXeZMgc8dvFD3Os03lKk-119" value="" style="shape=stencil(lVjLbhsxDPwaXwlKpF7nNP2PAHFqo24cOE4ff19uF2tbFHbc3OzdoSSSMyS1G3l43z29bTeR38+n4/ftr/3zebeRL5sY96+77Wl/tl8bedzIw8vxtP12On68Ps//354m5PTrx/HntMLv2Y6p8WQU+c/8ICiF9O/J1xl/2L/e4GXARwpxHV8pxg7fKAO47R5Lh8+kso6PgWrr8EIJ4IUphf78JA3gG5X+PEwB4LUtr6945nV8qiM+6jo+ZxJx+FbW8UVIXb6oBYBvpH2+IsxXVY8XiiD+tZJUh9e6jm+BQnXnQf42JUnO3wz8bZlidufJ6DyFao+fGAscbtUbmCQK8qBR6hmhmSqgUOALxS6aSSR4i9YnrVRibFC0M6iZMpBBG9JsTxIoK/aae69tTwFCsESU6A0qNhCnfMbaNG60MGyByZSSN4iITdlXO4uDokRkCn2qzS3N0IB7+tkTyA3bwRkYmXCUxPlgGsRHyi7VpjlkUIirN4jIB4vJsAMUafFdxAwSItPY1qxtoiNd8noTVsaCcGXgmvv/NSgUsYE6tlbYe6bXjnwNH8nCOuihIAGV4UhWqlCdMWroYIAlmrM3ULRD9g3FwlAwvYP6PNypGqNEC8qD7eDqUqKMDaKjhlJG5Pu0QfFFwBoEmpPMwBWBqQWBQWM0sCZXcKd2k4MWSrjyiRtlbNZDVSN5PQRjF9KDDUuujeKohkWP1+GZ7wxX4tZvCK/eY3weGw6H9VENs+FT+gAV2Bny0A7zUg9Wh+cen6A0bTiPweETwNvwX/36SMnGlxKcvwwoarOsO09bZpS1y1Hp42+XL2RglcoNwwnWX11miQvemgoQZRguCwxbTvClccKDAPEwO/Mi6hV8doJsy3V1Be+qluHR+MX+smbxwevzEE80hwyDfLCShdcfChASAPtByvCooLDnZ8AXCx4um0oV8MfyJR6v0N/Pfay4j7cf1y8jL/vDYf6wcvvef0mxR/NXGHn8Cw==);lineShape=1;strokeColor=default;" vertex="1" parent="1">
          <mxGeometry x="1045.4733744234786" y="281.19546989375897" width="103.07950008563846" height="38.6471418764944" as="geometry" />
        </mxCell>
        <mxCell id="kXeZMgc8dvFD3Os03lKk-120" value="" style="shape=stencil(lZbbbtswDIafxrcEJepAXXfdexRouhjLkiLNtvbtR89wGtHOj+3OUfyZp58UB3l42z+97obIb5fz6fvu9/h82Q/yZYhxPO535/FiT4M8DvLwcjrvvp1PP4/P8+/Xp+nN6enH6df0hfeZK5k0TVTkj/kkMMXw9+TrDBzG4w1QE2nrgNioAkCFtHZAyiR8HwjMxNwRWoj1PtGUSh9EY5ICAKGiPZAoAkAzFemBCi1Ui9G51JaTTaCIz+tNHjaJHCkVbwIFkSLF6oNAtZZEskoTAwsmhcK+EEEAoJRyX+qrILddCsQOCEvxt4FKIXZArdQqyJJpzQEZZikX0l4b1eSVQakt6OCBhMTUKPdBWxciC9qWfrkJOgAttVXQyovNbcAq7QDskgG5D1qVGurRvIyVq5aEGGjJvlccUCgBaVRzoE+rDRKNoHCV6qrjGrBg0gjNAwW1aF71tMKgpVBxFrBahUldlgJlII2pRV2lbWqAabwNNDDwK6U+hmxTA0mDcv++CDWQJPb9FhIUxur+CYESGBlhJW3YO8lfiHjkNdJeEkIZiDQUis57eD9Pn+vHFy/h3JvArrz4mpLms48XjFQXwX/6H0C8WfwGE5fLffv95q8cqwfwv1zTfZ2l8Ob/743qHwB7+FzgXsbDYd7/bv/3C58dzcuiPP4B);lineShape=1;strokeColor=default;" vertex="1" parent="1">
          <mxGeometry x="1119.9264910582378" y="291.09124461291094" width="5.253646340794376" height="14.13412819939462" as="geometry" />
        </mxCell>
        <mxCell id="kXeZMgc8dvFD3Os03lKk-121" value="" style="shape=stencil(lVbLbhsxDPyavRISqec5Tf8jQJzaqGsHjtM2fx9uF3JC2jttb2uZI75mSE1y97J9eN5MHF7Op+P3za/d43k7yZeJeXfYbk67s35Ncj/J3dPxtPl2Or4eHpffzw+z5fz14/hzvuH3gouZQpxRHN6WExbq6c/J1wWw3x0+AbhSCQYggZKsA6STWA960vI6IJcRwADkTr2uA4pQswBJlHgdUDNVC6jj4LZ9pyDWAXFZt29CoRn7MIp2275S8vYB3N8j1Wrs9QDc37O/P5OAlvVGnO39gXIDgE61WIA2EUWkFLARaUkLDilbgPylRoWC42mmDEjRmdIVTxNgRWsUuwGkOK5Yo4VrmwIY8bSPmlxCatQ6ABQfkiqhAOlUlQ7bPjTqyAP7TrPWDfRBPUTrQUdOBfKviZqtUqeMUqjUbJESZSTOOCryIR4o5uInZBjMus2jQOLF3BHvEombXtheh4UVZ6OCtel4HRNV4CCG4KWjJRJACnURHSkqZJGKszs1C9wJM6BfAbA4XQ5ZhzLwoLSINiQlIhqqpV7xKGBmpOYRmlYGA2MWr9WOTgTEjXj5ewB0NzKS8/B/qVIhAQ6yX2w5jdVyO4OrLkRqIOPouao1Q9MlDF5e7BNcI1fMTrrYoD1bYkuBI15JZDssDDvMVJxwOmSpZme1z4UYxF8puPGeoL0uHDuLtIMRyCwySfEAlMB/vzf/AaAfH8/bp91+v7yOP//vn8N6tDyl5f4d);lineShape=1;strokeColor=default;" vertex="1" parent="1">
          <mxGeometry x="1113.9998719378186" y="298.5460629983596" width="16.285949797010822" height="10.682705805547624" as="geometry" />
        </mxCell>
        <mxCell id="kXeZMgc8dvFD3Os03lKk-122" value="" style="shape=stencil(lVbLctswDPwaXTF8iSTOafofmYlda+raGcdpkr/PqhqpBi2vJzeJ2hWBxQJkFx9ed08vmy641/Pp+HvzPjyfd1380YUwHHab03DGUxcfu/iwPZ42v07Ht8Pz9P7yNCLHpz/Hv+MfPiaeSqkjKbjPaSEE0fBv5eeE3w+HC3xIEr0h+CKh3ibELNpbgpdCduhVYjSEKD7extcixW7gxLnbePWSLT5I8ATfi7f4Om+4ji9SraS+ipIEVKW3G0SESCT1bslwZqSeMrCFL4YAlRNPokm6+DnKdUK6UsnRMquTpJaQad3wuZEJK5UZI0hJlgAnkZAKNMk26V5CIYQizoaUIQPJAf9r2q2HSmwHEGxI6KesPCRrDbRP5EnHxq5BHAkJsmbbn8iZ9A+qlCze0YEBYzQBOVESD5zXFoHOC1jbNQmjymxg6Py/RVKMPN7Qaq2d7qSACdDYIokyjYqotXbGFCS2wBALllCquEynZGO8mmg/YwxXO2Kwwnb4NiG7lQGQSUgR1ra9gKxY4eCcZiYpHwA4ypo6XMzmdV3nZlx2UKkEn+eyLvgyt8cqPknfpBykElFD67xxzBJNvfgrHxUiKXrd2igrPQyvTjZUPSeGj83B5iWSRsBX66G0nBI39GkO84jrANEztXhUnJ45Eqwf8AdlffnN+9p9PB7+Xw63w34/3S0vv7eXSSxNF9H4+AU=);lineShape=1;strokeColor=default;" vertex="1" parent="1">
          <mxGeometry x="1117.3779662066754" y="304.1611586223099" width="16.474452548738633" height="4.619065486468041" as="geometry" />
        </mxCell>
        <mxCell id="kXeZMgc8dvFD3Os03lKk-123" value="" style="shape=stencil(rVjZbhsxDPwavxKUqPM5Tf8jQJzGaBoHTnr9fbk1tFlR1jgF+mbvclbiiMdQO7l5fbx72e88v76djl/3Pw/3b487+bTz/vD8uD8d3vTXTm53cvNwPO2/nI7fn+/P/1/uFsvl17fjj+ULv844ppAWkOff7QHL3wefz+ZPh+eNuSfpzR05nptHirkzF4p+bu6YouvsM6UC7DP52m9HKKPtRyqhA6gDKcwBEin43gOm7OaAECn3KwR1qgKKEnEPiAqIc0DSLRlApZjmgCwUelZTJpcBoJKYY/BUgA9FSGIPSBgQ2+sVUCkBWku2cVpci5XLgGJZKuoDiKVSiUsPECqAJQXEPjRKgD5UJjErJHIgWqsj7tNnoQGkmwKqYam0J5cBykl/cJUhrVVaMK8AB/OhBnJ9LOmaETkdKPcs6ZoB+TCkqH5CQAJVzTjjdCQPypICUrIAFN41k/TBp5+IIPgUUA1LmRitUBqJGwAqM7UOPpTG2wxQvAVAHyrVYAEFRKtj7TXcI2o7mukS1QIEO1G9BVxxogxbyld4FQuoKL6rLUwbHmYIH4YlsBOcLACVMj0oG37qFg6/MgBgkhbK2QLclRXMQRTMa7EtRZ8g8bCwJBYQ8FH7YUuCaK2tWm8BQG0srI8AvCVLa4EKa4mcYYV8BVCGcwBOX85qjzOiRguIOCFs16rXnEhD3YAFfN3ANuUwQHrAB7LaNsa1WP0nQG6C54NHpwA/AGCP0MZowi/Dkq990wgU/QTkNbb6vgE4VGhCGwC2zf2KQDHVNeDKJE2ebwQKlHHSWvlGAnm0gh+cdk2cznSfUfgFjwSq8oJRloUYnLR+z9Cq2jUjdVxsUqvmd0h/F6ssVU4HQOuyY+O0tNY6myFMW9SRwKEZIg4Kn2El0w2Y0pczFLt5TcgVoNEFfNDXZiTQWa6AFXRadP2WEkOxG6OtldHBBNKJ13S5oAAQfDpTm0lLXJuMZlO7qcbeQ9nnkg0+F2Ahc9xicz1p2He1pPSnENqDya2Jqdyu6a2L5tz4fr+TQeqNbQHjptwn5oZ9bjcWM3Mx5glIdLZJiS8zBq3AMIUvfF1A8LO9WsHpy7ZOr8zOeI/GnOExeW/N4TGJZQbJieFu4Zr5P137XTXXH+83jA+Hp6fzBeX2vb2R1Efn20y5/QM=);lineShape=1;strokeColor=default;" vertex="1" parent="1">
          <mxGeometry x="561.3211991074393" y="112.49258180613106" width="352.6996420596955" height="260.3153299669772" as="geometry" />
        </mxCell>
        <mxCell id="kXeZMgc8dvFD3Os03lKk-124" value="" style="shape=stencil(lVfJctswDP0aXzEgwfWcpv+RmTi1p66dcZwuf1+wGroiJL20N1kGRBJvAbiTh7fD0+t+5/ntdr183f84Pt8OO/m08/54Puyvx5s+7eRxJw8vl+v+y/Xyfn6efr8+tcj29O3yvX3h55TnK8Xcsjz/mt4wpfrnxecp/nQ8z+IDU6lDfKEI4mMkX4Z4XcDF7YSsC7ghQQI52U4ogXg8QcgUwJaqkB8TYiGPEgrJeOaUyIXtBMdMzENGFkrgEDX3Kt7L6kgySHAdpntCpupAmbwFQusQQELKVGRMyNR+bkLt+vfuCZUYrCCRQhgSZoVbzfCOCtslMkhwirXZU6FSwJ4sDtVDMjliA0OiAIBeEqNQBnJgkjhSr3YBrleIeAQtMcWE4qMftVDJg4JKP91MOwy+HyiNrItKIhCfutbv8QmeN1MKNr4i3dj66H4i4KhTt1qYRYDapxpsRRPYkXO9IHfIXHe0rQTDuaQoIhEwBUMi6TraKJIRcgrdC9a9hXgEOUW4oWRFpvEZOQs5Z+MDFHEui/0DkH2X4Kw+GYrGkFQBCCDedUrOEQb19CSjSTQKgXixhGgcBecN5A1FcceMayID5829O/6jiIvlQzMJgG+1namZEDJppiy2oB6J2Nm2oTaakMRcd80ZJRDE/52gfW7kkA5KAjVsGkfWfg4aTbUaKNgjXLAk1ZGkggWaCkwrFtgKdO5bJgiyCe6uMGveDBLURtLIi1KpAuLlbLek7V4Akdr3DGw6TAJp6o4t8ypeoawQyQMi5WpXiA5OjjrsmgFbClVkF2zLqg4SAQ6S7FSh7EI9Ux3MsDXDCV4dspqO0y1tK950wEgFx/PYw0OfAtbjvR0SBE4t7fsGAjhZL8c031voVj15PK+DLG31H5XGGK9ox0CGHG3w2FspvBdkexv6IL4sv4/6wdotGV07Pr5V68PfK/nL8XSabvTz/+0VXl9N1395/A0=);lineShape=1;strokeColor=default;" vertex="1" parent="1">
          <mxGeometry x="899.8303276162455" y="343.05906877637767" width="34.37664766547982" height="36.090953379892504" as="geometry" />
        </mxCell>
        <mxCell id="kXeZMgc8dvFD3Os03lKk-125" value="" style="shape=stencil(rVfbbtswDP0avxISqQv13HX/UaDpYixLijTd5e9Hw3Nq0ckZBuzNkXkskeccUhnk4W3/9LobOLxdzqevux/j82U/yKeBeTzud+fxYk+DPA7y8HI6776cT+/H5/n369MUOT19O32fvvBzxomQ8oTi8OvPCoV54fMcfxiPq/jMlGsXH+0Lch9QlGLrALaDlvuA2kh7gCSSdB+ghUrqAKlQADu0QKkHZKXcAEAoSgeokUQBIFONHUCFBFSpbZJuTAUdqVHtj9QSVXSkSsUBClVQVkta+yo1JamAB12+dwU0ygEAeBHCVUshUACIWhatrbZA6jOeuHoA2qFYURzACocAQtUxlyERxYjts7ZKV2A52yFpD4hUMswh9jlog0eqZoj+SMalIB4yaX8krVgb8QYgAH3ba9eXbCVhj4bmc8igrMarM7X1hYAcZGruTW0eRVpaqXllUpS1OSxvTBpREnmj77pU+l7vy9kbIiIiEunGQS0CbShp3ABQwzfmNqZGDX8aKb02msIqlbS091VZEwKwV58R918B2VJ0lkvEgIdc/EipTAnwkK1t9Ezbng3skNrSVa5zVJdBeRuQvKnFRgBgWrIfKdzgDGJrG72BOJCApHkz5CgDNwQvVSUGht7Y2TiB4ewIoAgOE70zZRnxt4vpFcdYodT68Ag9FgOVnttr47gdv9FCoIh6Y/ONC09+S7cEF89g4LBNbXbxCsQvcTnuR33QxeJf781/j7eHj0v6y3g4zHf89Xt/qbel+Q+BPP4G);lineShape=1;strokeColor=default;" vertex="1" parent="1">
          <mxGeometry x="903.3883200834462" y="356.221066292219" width="8.843977877399993" height="25.58501742453056" as="geometry" />
        </mxCell>
        <mxCell id="kXeZMgc8dvFD3Os03lKk-126" value="" style="shape=stencil(rVfJctswDP0aXTFcQfKcpv+RmTi1p26ccZwuf1+oDlUBsp7Smd4kEo/E8rBwiHev+4eX3RDc6+V8+rr7cXi87If4aQjh8LzfnQ8X+Rri/RDvnk7n3Zfz6e358fr/8jBKjl/fTt/HE35ecY58G0HB/boucKSQ/qx8vsofD88zeU8uKPlUyLV1+UDNK/lQ+8pNeaao5b2nDORlOxYFcOQckK8UnZFvAejPVJ1V6P3Gm4DIlLK2OFON64DEVKoCxEYehCAzNbYxYKASM7EOWvbdzTcBJVM0gNTddhNQA1UdtlxgGGq1bmVhFlCpCS210ZwpA6MbLwDCPODWVslpQPFdyduARsUtAOiGZo0ugZgxQFOjJKrI6EZNk69UmM4jQOe/hDKhfHNTfk0I7peuXqGNaMK+igGafS1vGVG11RJLD5J6jJwO9bgCclS2eQGooOzJdmarUsaAVK3RDXMjGS8FCtit0YS64ISQG0yk41bgUtTsa7A5jACtklSejAOXdbUvkdxG4AzAbwWuGIC4Fd9Q2arU8A3NeKng0rdIoOogNW7laO5s+WgZaFvceN+e2JfIbeSo4XehsBEIrdJIYFxnWANmfvhfCOkRptIwTmvpQgYQqSArpvFrAjhYkKWTGj9JrCvI0rFXG3J4OJKN04Bu7pLWAfBvOW8UGes2JhrTtkK3anVmMs099eq2OpXppJMRKIBOGpZTWenzwQcHSzmigTjIHJkWADTqci++k0bSUgCVYk/IyeTJCSujvRmYZNiIwGJnG5DUDKSP6+k7ZzaUD9XKZ6C/yHurDyKR61P2JF9hA5XSYMowkwMUctb/Y/sExcX1LjAr8x7aa4q8ZFkBWbY4XxpVxOebPiX6YP115+QCO+dk3SyHGzz/356q2/Ly8fdd/HQ4Hq/P6vm+fUfL0vUNHu9/Aw==);lineShape=1;strokeColor=default;" vertex="1" parent="1">
          <mxGeometry x="985.4723349104597" y="372.2420207600271" width="388.5790907797806" height="8.410124465621228" as="geometry" />
        </mxCell>
        <mxCell id="kXeZMgc8dvFD3Os03lKk-127" value="" style="shape=stencil(lVjJchpBDP0arir13n12nP9wlXFMxTEuTLa/jzpUDyM185zcYNBD29M2u3D3/vzwtt95fj+fjl/3Pw+P5+dd+LTz/vD6vD8dzvJpF+534e7peNp/OR2/vz5evr89dMn+6dvxR/+HXxecY/Kpozz/vjxhCvz3weeL/MvhdS3fKHol78cf3JT3mWpR8pFa3JYPkWpT8o24bMvHSL4qeRcphW1AEgVBO+DI+W1AzhQNoFIGgJJHBAcgZOK2DaiBfNQxChhQrNOxUQNZqxJEbVLKMKwCKNrp7CgBQGNiA5C4AWKIhuwUoDBFZFKlqp0ugXKFANZUlcww4J6ENRqTChWQaQGkrAGVGvJB/k/7UKXcAFs7QGuojhoKq9SbrmdhV0VRSlR0wcmTmgEgjpgsgELVQXo7TT7JfUNhdZbeTZoMMKk0CgYQKYOwSl6jjlLLVEBYhTmGGq1SACaJxc5bQAR5EIt9ngCo4qTNTCahzic/86QhIx8krJMPFWlog5sLoMGK6wBnASjT8rOrFhARQLgZLQBRoy09YgVA1GhhlPwKUEEzbs5OoK4BlWgbBbkGoHZfJy41SqhrFHLNAgJqZNk2sp4ZrGEmH1oEevdmCygIIC7O9QCmqOTBDPZecQgQRhDXAES+RHkCJEQNGShTxWXQW3sQp7AW1DWES5MGNLIc85SIpQi3VMSZTCiu0kqntpGQhjwG/7ogUJhkHEw1WpBJ8ZYGACiLxcseeg3c7b3yVu9DRSoLFU98Rbt6LpMTecRhy6RkUh2hScXZ66HPPZC54u0S15sb0iBj0SwPy0q0BWgGkAblbwOSbQN9YwKNRgAmrB/sZAKoxiQes3vzgtBh7Xsl3me85rc8QaO9LMvIejdGJkkJ67HYt2+0JrJt+H2/x4CofegXBAY4raHfKIh80+2a8GHW13+duH5nobAG2/DlknNAg7holmm5FT3Ig1hsz1fc8GOyG5Nf1uutC9xMObmo0bbh0zglrye7RxNlWgUSeVCgjgczr68cULNnSpqpDLcrtos6Q15P05Dh0s22fQnLQSzZEo5xKG3JiDNA3M/ijJhA2QaSgavRzrMP5t/g+b+Jl9ELVuJoG6RsA+nQ4jVzBpXtf781+1BePlxf0T0dXl4ub/jWv9tXevLo8jow3P8B);lineShape=1;strokeColor=default;" vertex="1" parent="1">
          <mxGeometry x="977.1546677641409" y="380.82549161053134" width="21.85125018761596" height="216.3660920371179" as="geometry" />
        </mxCell>
        <mxCell id="kXeZMgc8dvFD3Os03lKk-128" value="" style="shape=stencil(lVlJbhwxDHzNXAVqpXTO8g8DceJBHDtwnO33oTLQuEWqqzG3cZvVLZLFVaf47sfD3ff7U6Afry/PX+9/nz+9Ppzi+1MI56eH+5fzq/w6xQ+n+O7z88v9l5fnn0+fLn9/v+uS/de351/9DX8uuMYu+I4K9PfyhFwK/x98vMg/np9m+ZQm+eBag/KlTvJlPNiTbzTJe+8aAlRHeQZUVzHA86wBO+8hIJQJEIsLBAFxPlLK48keIM9OyMkR1qG02arecYGANrutyCvQkZoLcQJwcg1Zqbk0m7XSoMoeoMxmrdkR/gKrL4jdEFebq2ECNMJcEsDsuBZcPgDM7G7RVeSHNox4BYjSWAfluFYwWwUwm1VCCnHJEzmaQ07YAnNAG1y7AprLjMk0a7356G5U34goLgZ9qIYOlfQn3ry5Bvhhxw2AAaCycbZwPgJAcqFpQAJKS4hFA0CpiYU8ik518GUN8CaGqmOQOAqPvLIBFEDYEl0xR8pAh0LORw1AVspsHCcZGhxJsq82q9QAEBFZrGQAHng6iV/NkTzIlqkMMm+PBJROSVetDgDxkPwI+q2VgKfj1U1bAOgFYnbJWAk5Lkr2NTokwNYgAWl0yMAP0o3oBI7ZGpLzNh6ADsEPqm0BwNPSviQTDyjifB7v2wKADj4uqFHQkfwia2RUhFbMACoI9200gMwqwaAyAMPmJI8+YSOfEVNN4mYYbMHUHuEVMuio+Rv5CPILGfvkkZb35EnLI85JaU1aHhUqMqXzGtp78uY8Eb8/aHmP389ankCeIMPnBKsg6Wa44WaYDB+O5BPddp5k9QXxRYb/eQxBe/JZy2N+WvmE32/4g7Iujay/5TPkT7Txgv1l+FmhPYM5f4Xn0R1LHrPMHp+NvgXLG/9mHO82HnF8GX0Djl/DBw/yJ5mimuBWgUY23srD8+i++jB+2chDe94mb+spjpew4DOabeIYc7f1BZwnjyl3I88g3tnwh0cF2anvwdRf1IC30bRt5BOaYcWgZuhFBay3QKwBaIGyaLIYhvyijWM4Xi4aRYa7hN6KWgDw2qLZZdgW9HbafKGAI/WGPWsAWqD0kcAcCe10FkMHw1a0jzVGBxRrfXAyOqDkuBjNGFbLxfDHoyPfGy+bUTqA+iQDrG4oGCcAid9mrAR0KLaFwn7oY74xK9wLsN4PdrYCQF9VmKyBuvC+DDGrCkL7GTJcqtAPNS2Gv4S+IHNM0IAC/LBYSlWYuhdrLzxe9tJx0wDbZzE7U+Nds7d7AaSDWU4f7Dg7QHm6jJZjF2A7bAzQLWTE28RmzBpcQQtO+wV/tC9XY37fl+M1rYqHvpFHgKp3zZXwXqDq/Uy/VcBfSLOnC95t2NudImkBmZVHpzkAkjxRr/pW9weg3+4gHXjMKgPQ74+QDmaF2m+oQNZ4q5nXbXkdeWQPEGfH+QAHSAGodF/g6ruZViPC9abIqyUwYaou5BNOYsqkBOthK/rakuDA0/vlqOQP9GX9frSw6PbU54fpqOg6cnh7oqKAcG5hPeHRIX/0NTO8xWLd0BO+cmVdQq4j/Z78rdfeB/Ly4+2O/fP58fFyRb/9v76Tl0eX+/z44R8=);lineShape=1;strokeColor=default;" vertex="1" parent="1">
          <mxGeometry x="982.5452143144039" y="371.65480477257506" width="405.76414815336915" height="237.6595696186858" as="geometry" />
        </mxCell>
        <mxCell id="kXeZMgc8dvFD3Os03lKk-129" value="" style="shape=stencil(lVbZctswDPwavWJAgudzmv5HZuLUmrp2xnGvvy9UlYoIydvJm0xjSRy7AAZ5eDs+vR4Gz2+36+Xr4ef4fDsO8mnwfjwfD9fxpl+DPA7y8HK5Hr5cL9/Pz/Pv16fJcvr6dvkx3fBrxoVKVSaU59//TsjHvwefZ/vTeF7Zp0LVdfZeqJb7gOJJYv+AtJNdQHUUfAdITIkBIJGUDpCFXL4PcMzE3CGKIwaIIs2DBqiFON0H5Ewh94BK3gHAxiUFFOBSclSTBVQAiFrYzQsR5DVkimKDhgBPqS91zcQVALhlfQFECugFbllfAFoZwS71ZFJ61QCDDj2ZKrc03EurCz2XKgRMhWMLYCS52jxeARyIYSKft4AC0qr0jskGXYFLJVM2afWN8PuASsG8EKAeStkoLkJ6l0jesFX5C8iXK+WNpgvoZNm3+1YCyiCGFKweVp1nn0xp4xN+Qtt3LB8JIgTiYNOEuqtKzoo6woYv6rERtZbagxe04Zu8+ibCfUCkZGLg1gzvAuQjgKhtqJ9yOiAQmRQgPb91BqH2HR2lvnDaFzKQnNbBiFpLiTTql6wvk1oHJWgbWui+DIkKuH8zsCJFwFSm3MerfRPU2DeOLc5TBRxKtms7KsDc6bjv7bmtQfv2qQ2+d3sBwaq3IRh7pHuvg3VjD+6XYNspw9KqJou9H2lYqSWbfCL7TMVshVTR4N+MNLx1/n9L1Y/3FfdlPJ3mDXn9v12J9Whep+XxDw==);lineShape=1;strokeColor=default;" vertex="1" parent="1">
          <mxGeometry x="1036.7634439407643" y="388.77356755199366" width="6.201612867813917" height="28.1015215798692" as="geometry" />
        </mxCell>
        <mxCell id="kXeZMgc8dvFD3Os03lKk-130" value="" style="shape=stencil(lVbLbhsxDPyavRKiqAd1TtP/CBCnNurageP08ffldqGNKXQn8G3jzIgUh0Nqkoe3/dPrborh7Xo5f9/9Ojxf95N8mWI8nPa7y+FqX5M8TvLwcr7svl3O76fn5e/Xpxk5f/04/5xP+L3wIsUyk2L4s/xQlFj+/fJ1wR8Ppxt8Iw0ez1QBnhtVdoSsFAFBhDh5QiRp24RkKfkrJCPUbUIp1NQRolIDEVQoiCNwwkWqlHyVAnEG+LXmN3hwA8Nr9AlRiQDfxnwSSYJ49aIphQJEDoGCD8BYNIvQvGhcuoxbhNK8aEwB3zn6O9ilExJNKQ8RClUUoZJWT6hUkGy1d8ENAepcKA0pZYqIkMeymsFhhNwbZ9XB7BkgIfuyslBVHMH3diNBXrAr+Krm3rxbNcq+9azzsDfZnx8oYdG0DfiA8lEqo/cbqk/r47DjhYTvMYJ1Kfby6DRLCAT4n5nzZ2YelsI89VGNWj9v1UywyDoOJLs1YwL7vjarZVTWewm2FKonJCYFjVfsPL92coVWy6EP6U6o3Lf11urMPiWNcO/Mrex7QxtcbNY6g9mawO6O1PzEm9sRZdS9+9Gs2G48Pi8sAIOhzeMINn8LqGmg4kVrCaocunlXPMOdYLfz56utWoz3AmiCz6nQT1vxliEQLFD0+VQbL0Awq8/Qo9aEYBxxt+2Kt2kE8WV4nzZo/Hvfs5/j7ePj8fxyOB6Xt/ft/8fHtv20PNTl8S8=);lineShape=1;strokeColor=default;" vertex="1" parent="1">
          <mxGeometry x="1017.0896643680858" y="390.48884024517656" width="47.661342748597235" height="7.7475163084542" as="geometry" />
        </mxCell>
        <mxCell id="kXeZMgc8dvFD3Os03lKk-131" value="" style="shape=stencil(lVdJchsxDHyNrigu4HZ2nH+4ynKkimK5ZGX7fcCoOBlgZlrxbSyjSQLoboK7+PB+eHrb74J7v17OX/c/j8/Xwy5+2oVwfD3sL8erfO3i4y4+vJwv+y+X8/fX59vfb089sn99O//oK/y64VKlkDsquN+3X7hRaX9/+XwDnI6vc4CnHBVAlshlG8CJit4hF6oIEMglBSiZYgVHitT0DpWphW1AZkpeAxK5vA0oAnAaECjGbUCNFIJOupFjCDBVkrImsEORNlXduEIZJF0cNd24mMcS62WtxE0BQqEIqsRMrI/kGwRET8waIGVI2wAvNWkW4EGVPFPRnQ6OIqB3X88kHciDHLwnr6kRIrEDnaasGx2YHIjP5NmuX0EGcch3Fu+A3DxVcx5ROGCqo6TVKU1GPXMjuym+UAK0cxSKjk9Q/Z6iVpq0EJJuKH2K9/D8iYKhnBucWteZ1aXER8RpSXgBKIAQPlj36hlgERiP7yUCLe4VD4seoBwS5WWTMcB2QVgE3Ksbg6ZFpykCCK8XukEe36zFd50B3mVq5kCiY8ALuUIW52GQQLDe2I0I6qYtnA6tL7o0vK6j6/8Zn4fzbcRXE4997qPxQiHWJHXjclivZ6IaTTxaP5ZhO9N9OZxpazBKev02RLHOn7Iwujqsfv3iCJT1gWQHD07U2KqS4x0rWph1apDUrY5Ba5rVGKtM5iaddS3jxt2ac6reoWUK4Egy3HlTV4c7zdXWqTUohcjjBBMAc1XMwoyDMu+h+VEAWauh+HujVNZHyg7aV6y2TEkAyL/YTtl9UAdV4myrxHKxAYLz4uqMbUzF6wDx7GIBaBwUjZoJVcrQQOPSNMvNdnBoaE42aQFkNF7kUfVZlZCPyVjuDcAPZ1sHTC+PuQ2AxgnAOFnvPcpBAIYaGc6QaWrTBKhjzNpK+oPP1PsA+fj3Kn45nk63R/X8//YVLT/dXuDx8Q8=);lineShape=1;strokeColor=default;" vertex="1" parent="1">
          <mxGeometry x="1059.7841265029429" y="387.4569059144578" width="21.40901946826716" height="24.4186499910478" as="geometry" />
        </mxCell>
        <mxCell id="kXeZMgc8dvFD3Os03lKk-132" value="" style="shape=stencil(lVbZctswDPwavWJIguDxnKb/kZk4taaunXGcHn9faFTGJmhtJ2+yhDWuXQATP7ztn153U3Bvl/Pp++7X/HzZT/xlCmE+7nfn+aJPEz9O/PByOu++nU/vx+f19+vTYrk8/Tj9XP7h94oLiVxZUMH9+feG0vri62p/mI839lyp5M7eC4nbBohQcR2AA0nYBmT93HuQQB6EVBJxn0J2lGQbUCNF6QCFqcZtgHeOXJ9E1SgrSELIhR6QKQMXOZKvPSBhD5ES9wChyACgZTI5ROIMAJWc8cAkwEMJ7fNNlSruXBwABZCpOuIweABV0oiLH3IAfViq7m2VIgqpkE9DHxIEGH6rzwQEsTDHhKRvkAehZEIqGKCajz2gtjLcb1yhmiwAKagMerjR1H2Ep+CtCzSZcqYqFuDQoJGhEYUclhwbuibI7wVg6iqNj1shJcPv2Jp/H1CGOcOUkeT8MAWYPBK1kDd9UI2CshatugwApNFAeciBkSBkAMS2xTYVNPQBdfrTACVfHOYM2kGZG5k/dpDAHJJQ6Muqi9KB8S3ObmrRYQhCYqbQA/hjUd5fi8lOY59hp3Utm4haThvmZulGSAtniaosAkPPNeleD58IJpjutt7cUwLCjHbvqDukY7s5ddGBQnrXboOrPSKP5ybZG3swfLWPztp70KmxVQ7eeMuR6U01UfxaTsMcD2fQZ6/a/9vrw/WEfpkPh/UCv/1uT259tZ7r/PgX);lineShape=1;strokeColor=default;" vertex="1" parent="1">
          <mxGeometry x="1077.7514543894658" y="393.91339932292203" width="10.58049880251512" height="35.77312081850248" as="geometry" />
        </mxCell>
        <mxCell id="kXeZMgc8dvFD3Os03lKk-133" value="" style="shape=stencil(lVdJchsxDHzNXFEEuJ8d5x+ushypokguWUns3weTKTpDUNOObyMKTWyNhZO/e9k/PO8mcS/Xy/n77vfh8bqf/JdJ5HDa7y6Hq35N/n7yd0/ny+7b5fzz9Lj8fn6YJeevH+df8w2vCy5Rkhkk7m05YCZxf0++LvLHw2klL0IpdoBEXrblg7MKPEnelo+JauoNohC35bNr1zV5Rw7YX4WYrT1IvlIIQ4DKNoDduwENoSo4ARWRYu+Cz5R4G1AS5doBYqAEbMoDIDMxAKRkTSqRUgBpy1R7DVWv8AAQqfZxrQUSKWqefA+oFEGUoiPumbpKzW2uZnKDiozIHRp3Vk5kYFPgwWvVCbih5RNMXEMrkC2A6+tNGZ9AIhQQ+4KrjjyKkjSL37lRSHCUvAEkyG/Ng/Q+fMQ+tThaQEDc8O3vFaAiDYlcn4eSYQXFMgAqJF+sA79xJ1aA72u0+pbKLZOiYWukgp3OfZSUrRk5HYgNW2s7uQ3goYAqVcSlYsk3AxBbo83DbBLSII2bK6cTmFhaQCXbsGZkkht8UDriGSoGwLhr6MwcSrQgHz4N0MbYA3Jtg3WLfLmPUtKxBwa7jqDcU0N1oomSxWrwvo29LYCZWZxg59OKs7tJbjX4n+RjHFY/bEu6/jAwiYONku5jDoSVxfZWBaCuUe2+J7h5a1sMVh61sUClb3sSWzO/vYBS6XOgN8AI2dGgN0TQ9HSUlF7eUQb2DNvenGJAU61ls0/qxgviyQOFlFSgB4tt8uxbbW/E3/irDGEQn88+GD6W149/r5Onw/G4PG7W/9vXjB4tLyF//wc=);lineShape=1;strokeColor=default;" vertex="1" parent="1">
          <mxGeometry x="1071.5739423015666" y="387.9159992056866" width="16.502313501291233" height="21.927819364844368" as="geometry" />
        </mxCell>
        <mxCell id="kXeZMgc8dvFD3Os03lKk-134" value="" style="shape=stencil(7VjLctswDPwaXTEkwec5Tf8jM3FqT1074zh9/H2haugIkLRND7n1JltcEo/FAtTAdy/7h+fdENzL9XL+uvtxeLzuB/40hHA47XeXw1WeBr4f+O7pfNl9uZxfT4/T7+eHceX49O38fdzh54TjRjGMqOB+Tf9kYvfnj8/T+uPhNFufIhWv1odGPm0DiiNXFCB5ymUbUJm4KUDxFPw2oDF57UKNFIBJTSzWJ9RKDEzyTpxwCtEcpQCPyNrrFig3AKgUtBNNIg1saolK1IBMGZkUiLMGVJg5CUqoGtAoZJi5kiygAqdLI6ednkV6HRF7omZHJHSE7Fet14h+WfhvAIUY0C8zRc0mSQ0yKfv++gZgDHDkNfukIhJDQNVRyuI09iGzBiRqINWynwmrbFGRDAg3NPtyoAQyXRe6IQCHdCNbfo8nVFAQvrs486GhGs0UdOKELKiChGrN2TxUkLiRzFpdJdMF5EFOcNoHqRCoArHL0A1Qunyuh7V1GboBGixRUYGqfRhTiahRKLIFeJBpiQk7axKDEyRNNkoFi0CgYJxOsC1KxbFJHKb3CDBcktyjiguWGuJVQaqRKeoGkSNFHNayqLgKTJIgtmgBHsiM9GUTJQGgsEqXDQbAnSxbXdEthIxxAQXds3LpRbtZotppaTEFycwqAHX2/+PJe8cT00Y/YDzRZHrPeLIYmf59PAFsWh9PQFw/fjxJpYf9xleR47gNiNJSNJlK7pFeBXDuOnS7Q2TYR33rStcBLHRFgMUgGnqcV9cvCs5Ly4LrvaaeiAw0x5if4BQgHVdzgmFnkHzp0hTVBrt7byvTYeNTn6Le1gdQNPK62v1RkY3BcGY9ohs7q134PilU8dnEJ6H9ixWi2C9O6+vXrtzInr9e0eXh7X7/dDgep88D8/f2e4D8NX1L4Pvf);lineShape=1;strokeColor=default;" vertex="1" parent="1">
          <mxGeometry x="1089.2536912551068" y="399.58147169540484" width="7.811222562063828" height="16.96541199729192" as="geometry" />
        </mxCell>
        <mxCell id="kXeZMgc8dvFD3Os03lKk-135" value="" style="shape=stencil(fZJLbsMwDERPo+1AIvVdp+k9AsSphbp24Lj53L52taiZ1NpRFJ80JEfx7tIezo0ifZnG4bO55ePUKn5TRLlvmzFPc6R4r3h3GsbmYxy++2M5nw9L5RJ9DdflhXvhUoSzC0X6UTJs4ek3816ALvcrwGgNrQXhIgJvE2kGkgCiRnDbQDDQQQDJwVcAG8AkgJXKfwmyIC+/IERT0QQTRX1w1aZfh0TwodICWOqhiFRbQwI52QBSRb81INlAfUDegeXSDKzfro8eWuoxjCSAOfhz4Sl3XTHx+v7ZtXOqOJ73Pw==);lineShape=1;strokeColor=default;" vertex="1" parent="1">
          <mxGeometry x="1091.7736724304227" y="392.9630462538114" width="3.096558340680531" height="3.0965957880173773" as="geometry" />
        </mxCell>
        <mxCell id="kXeZMgc8dvFD3Os03lKk-136" value="" style="shape=stencil(rZbdbtswDIWfxreERP1Quu669yjQdAmWJUWabuvbl56nVKaSUwzYnS3zs0TyUOQU7l62D8+bid3L+XT8vvm1ezxvp/BlYt4dtpvT7qxPU7ifwt3T8bT5djq+Hh6X9+eH2XJ++nH8Of/h98J5oVRmit3bssLE8c/C18V+vzt09lxp/tbZ+0TibwPRU8grIDgq+TaQmOp6h5gp19tAjsRuBWRPBfggkVJaAboSAFACyXoHXanAh1oprIGaqLjbgHeOnCEyCcMt/vp4AYRyAUAZgEJJACDk/RpQt0Cqa6QyAMjryjZzXRyuZ6JSisMWQBxFnWALRBCmkshXG6YCEjFLIdlEVBBXBVKwgPtkh3WNqjYc2iG1Gu7kx2gHGZzWGgEC1zxkbwGPKkJTLRZwCFAxFQsw0re0A3SAIH2XYYdECem7toury0PEQDVhFQroSHWIUiEG8tb/iTlSJYeARHmoh4zyENr/OgDJu7oWkx5AWpJWwf2REpS3yOA0qoeLcvqw/k8gD7exHhI2LWc7hCR4kcVqm1YOsB6CWLXGQh6ElZMFAreb6nrTGqSh00QG9aDKMJ2dGBxoaIkB3tyO/NqcW9e+YS5mkGn3+HVnWxP4MIfRbwNFM3dwShqazkUe1ycY4mzM4V1KMVhzNIx4OxNqaLEOkhj7CMYpnRiN9l0b+a7b6/wnJvZQl/84035urw8fA/TTbr9f5u/+ux24dWkZ1sP9Ow==);lineShape=1;strokeColor=default;" vertex="1" parent="1">
          <mxGeometry x="1102.8355475811968" y="389.8334346510064" width="14.786138885385753" height="41.07479515763184" as="geometry" />
        </mxCell>
        <mxCell id="kXeZMgc8dvFD3Os03lKk-137" value="" style="shape=stencil(lZfbchshDIafZm81gDhI12n6HpmJU3vqxhnH6eHtq62Du8jeP5O7NeYDJP2SYOK71+3Dy2ZK4fV0PHzf/No9nrYTf5lS2j1vN8fdyb4mvp/47ulw3Hw7Ht6eH8+/Xx7mmfPXj8PPeYXfZy424jRTKfx5H8mk/G/k6xnY756XQCYJA5AKpQKARLENQE4UGgACSR6AwqQASIFaGYFKDAC29cYdaiJN60CJxDIALVCSdaAqyWh0axSBW6VQ4QGQRBzXAbX1xjhIpQDioEIxe6ABo1UpuCMJhQyBWkfA3KAQ0NGtatKoGBgjrZkYH6mMcdBKGUjDvPR+4gsglEDgLA7qdlDKyIZKGseMC4FCAEQhSX4LQdrIV4D0TdeAMJ7JzGIUOe5evACFMtqBKTmAKYIMmndwNgRYmAxQlxDSR9aMrqP6pFFCRpcrfVcMWIK5lCtd8Wtikuh3yChHhVr1NhScENkZrVjf6uWqsbeMlfJ9UfMi1AVZrdTGQmOebrhuRFcGGjUUaulxWmRQRH5tV3JVLKba1bwEcBn4HCDZdwg7ZACRq0LV2ZB6+bwJ5KvqamKqwEucKI05Ojct1NqtB41iatL1eNtoX41bpgiUYVVmlF5tsLFfSXX2AfCpGTwmNOeu3dsXB+/RaGUShEB8SSrEKDmJx+X5g9T0x48wbWL0aRN6O1276uXs5qPGFrnLazEfnT/7ahegPs3ZrpyavUBtsXr3M6y+8+XZXTxhdG2+O/9lYG2+k/8cQeTQ5huOhaSCdvD56//HgH38f2087fb782Nl+b9/ndjQ+WXD938B);lineShape=1;strokeColor=default;" vertex="1" parent="1">
          <mxGeometry x="1116.9100538297207" y="406.0529029276397" width="36.59634465289059" height="17.577823388136267" as="geometry" />
        </mxCell>
      </root>
    </mxGraphModel>
  </diagram>
</mxfile>
